<?xml version="1.0" encoding="utf-8"?>
<!-- Generator: Adobe Illustrator 27.5.0, SVG Export Plug-In . SVG Version: 6.00 Build 0)  -->
<svg version="1.1" xmlns="http://www.w3.org/2000/svg" xmlns:xlink="http://www.w3.org/1999/xlink" x="0px" y="0px"
	 viewBox="0 0 500 500" style="enable-background:new 0 0 500 500;" xml:space="preserve">
<g id="Background_Complete">
	<g>
		<rect y="382.398" style="fill:#EBEBEB;" width="500" height="0.25"/>
		<rect x="416.779" y="398.494" style="fill:#EBEBEB;" width="33.122" height="0.25"/>
		<rect x="322.527" y="401.208" style="fill:#EBEBEB;" width="8.693" height="0.25"/>
		<rect x="396.586" y="389.208" style="fill:#EBEBEB;" width="19.192" height="0.25"/>
		<rect x="52.459" y="390.888" style="fill:#EBEBEB;" width="43.193" height="0.25"/>
		<rect x="104.556" y="390.888" style="fill:#EBEBEB;" width="6.333" height="0.25"/>
		<rect x="131.471" y="395.111" style="fill:#EBEBEB;" width="93.676" height="0.25"/>
		<path style="fill:#EBEBEB;" d="M237.014,337.8H43.915c-3.147,0-5.708-2.561-5.708-5.708V60.66c0-3.147,2.561-5.708,5.708-5.708
			h193.099c3.146,0,5.707,2.561,5.707,5.708v271.432C242.721,335.239,240.16,337.8,237.014,337.8z M43.915,55.203
			c-3.01,0-5.458,2.448-5.458,5.458v271.432c0,3.01,2.448,5.458,5.458,5.458h193.099c3.009,0,5.457-2.448,5.457-5.458V60.66
			c0-3.009-2.448-5.458-5.457-5.458H43.915z"/>
		<path style="fill:#EBEBEB;" d="M453.31,337.8H260.212c-3.147,0-5.707-2.561-5.707-5.708V60.66c0-3.147,2.561-5.708,5.707-5.708
			H453.31c3.148,0,5.708,2.561,5.708,5.708v271.432C459.019,335.239,456.458,337.8,453.31,337.8z M260.212,55.203
			c-3.009,0-5.457,2.448-5.457,5.458v271.432c0,3.01,2.448,5.458,5.457,5.458H453.31c3.01,0,5.458-2.448,5.458-5.458V60.66
			c0-3.009-2.448-5.458-5.458-5.458H260.212z"/>
	</g>
	<g>
		<path style="fill:#E0E0E0;" d="M241.736,367.883c0,0-2.794-9.36,2.858-11.225c5.652-1.864,9.005-6.241,8.816-11.192
			c-0.189-4.951,5.76-9.769,10.222-5.129c4.462,4.64,3.867-3.568,9.817-5.562c5.949-1.994,10.992,2.844,9.363,7.267
			c-1.629,4.422,4.242,7.184,11.272,3.424c7.03-3.761,14.764,3.081,13.277,8.436c-1.487,5.354-0.27,5.949,4.179,4.165
			c4.448-1.785,12.404,3.272,9.616,9.816C318.367,374.427,241.736,367.883,241.736,367.883z"/>
		<path style="fill:#E0E0E0;" d="M372.066,366.541c0,0-2.169-7.266,2.218-8.714s6.991-4.845,6.844-8.688
			c-0.147-3.843,4.472-7.583,7.936-3.981c3.464,3.602,3.002-2.77,7.621-4.318c4.618-1.548,8.533,2.208,7.269,5.641
			c-1.265,3.433,3.293,5.577,8.75,2.658c5.457-2.92,11.461,2.392,10.307,6.548c-1.155,4.157-0.209,4.618,3.244,3.233
			c3.453-1.385,9.629,2.54,7.465,7.621C431.554,371.621,372.066,366.541,372.066,366.541z"/>
		<path style="fill:#E0E0E0;" d="M83.51,367.402c-5-5-0.5-13.5,4.5-14.5s10.026-9.798,10.263-15.399
			c0.237-5.601,9.237-22.829,23.237-12.19s9.745,1.567,19.873-1.422c10.127-2.989,16.516,5.611,12.072,12.061
			c0,0,10.174-2.55,14.365,6.95s0,15.4,0,15.4s19.134-0.566,17.413,11.267C183.51,381.402,83.51,367.402,83.51,367.402z"/>
		<g>
			<path style="fill:#EBEBEB;" d="M441.342,367.703v13.7h-386v-13.7c0-2.38,1.66-4.3,4.04-4.3h377.92
				C439.682,363.402,441.342,365.323,441.342,367.703z"/>
			<g>
				<rect x="77.342" y="363.402" style="fill:#F5F5F5;" width="24" height="18"/>
				<rect x="123.342" y="363.402" style="fill:#F5F5F5;" width="23" height="18"/>
				<rect x="168.342" y="363.402" style="fill:#F5F5F5;" width="24" height="18"/>
				<rect x="214.342" y="363.402" style="fill:#F5F5F5;" width="23" height="18"/>
				<rect x="259.342" y="363.402" style="fill:#F5F5F5;" width="23" height="18"/>
				<rect x="304.342" y="363.402" style="fill:#F5F5F5;" width="24" height="18"/>
				<rect x="350.342" y="363.402" style="fill:#F5F5F5;" width="23" height="18"/>
				<rect x="395.342" y="363.402" style="fill:#F5F5F5;" width="24" height="18"/>
			</g>
		</g>
		<path style="fill:#F5F5F5;" d="M202.806,94.746c0-2.668-2.163-4.83-4.83-4.83c-0.482,0-0.947,0.073-1.387,0.204
			c0.07-0.484,0.108-0.979,0.108-1.483c0-5.649-4.58-10.229-10.229-10.229c-0.644,0-1.273,0.062-1.884,0.176
			c-1.572-2.573-4.398-4.296-7.634-4.296c-4.898,0-8.871,3.935-8.943,8.816c-0.05-0.001-0.099-0.007-0.149-0.007
			c-4.551,0-8.24,3.689-8.24,8.24c0,4.551,3.689,8.24,8.24,8.24h30.261l-0.006-0.007C200.716,99.497,202.806,97.368,202.806,94.746z
			"/>
		<path style="fill:#F5F5F5;" d="M359.161,123.226c0-2.668-2.163-4.83-4.83-4.83c-0.482,0-0.947,0.073-1.387,0.205
			c0.07-0.484,0.108-0.979,0.108-1.483c0-5.649-4.58-10.229-10.229-10.229c-0.644,0-1.273,0.062-1.884,0.176
			c-1.572-2.573-4.398-4.296-7.634-4.296c-4.898,0-8.871,3.935-8.943,8.816c-0.05-0.001-0.099-0.007-0.149-0.007
			c-4.551,0-8.24,3.689-8.24,8.24c0,4.551,3.689,8.24,8.24,8.24h30.261l-0.006-0.007
			C357.071,127.977,359.161,125.848,359.161,123.226z"/>
		<path style="fill:#F5F5F5;" d="M263.415,109.218c0-1.659-1.345-3.003-3.003-3.003c-0.3,0-0.589,0.045-0.862,0.127
			c0.044-0.301,0.067-0.609,0.067-0.922c0-3.512-2.847-6.359-6.359-6.359c-0.4,0-0.792,0.039-1.172,0.109
			c-0.977-1.6-2.734-2.671-4.746-2.671c-3.045,0-5.515,2.447-5.56,5.481c-0.031,0-0.061-0.005-0.093-0.005
			c-2.829,0-5.123,2.294-5.123,5.123s2.294,5.123,5.123,5.123H260.5l-0.004-0.004C262.116,112.171,263.415,110.848,263.415,109.218z
			"/>
		<path style="fill:#F5F5F5;" d="M398.461,89.667c0-1.659-1.345-3.003-3.003-3.003c-0.3,0-0.589,0.045-0.862,0.127
			c0.044-0.301,0.067-0.609,0.067-0.922c0-3.512-2.847-6.359-6.359-6.359c-0.4,0-0.792,0.039-1.172,0.109
			c-0.977-1.6-2.734-2.671-4.746-2.671c-3.045,0-5.515,2.447-5.56,5.481c-0.031,0-0.061-0.005-0.093-0.005
			c-2.829,0-5.123,2.294-5.123,5.123s2.294,5.123,5.123,5.123h18.813l-0.004-0.004C397.162,92.621,398.461,91.297,398.461,89.667z"
			/>
		<path style="fill:#F5F5F5;" d="M94.471,121.499c0-1.659-1.345-3.003-3.003-3.003c-0.3,0-0.589,0.045-0.862,0.127
			c0.044-0.301,0.067-0.609,0.067-0.922c0-3.512-2.847-6.359-6.359-6.359c-0.4,0-0.792,0.039-1.171,0.11
			c-0.977-1.6-2.735-2.671-4.746-2.671c-3.045,0-5.515,2.447-5.56,5.481c-0.031-0.001-0.061-0.005-0.093-0.005
			c-2.829,0-5.123,2.294-5.123,5.123c0,2.829,2.294,5.123,5.123,5.123h18.813l-0.004-0.004
			C93.172,124.453,94.471,123.129,94.471,121.499z"/>
		<g>
			<path style="fill:#EBEBEB;" d="M174.286,207.132c0.152-0.551,0.242-1.182,0.284-1.878c0.231-3.895,3.949-3.277,7.112-3.806
				c2.471-0.413-4.072-6.655,0.91-8.669c0.925-0.374,1.931-0.797,2.404-1.676c0.626-1.162-0.007-2.692-1.085-3.454
				c-1.078-0.762-2.463-0.924-3.783-0.948c-0.813-0.988-0.152-2.475,0.635-3.484c0.786-1.009,1.75-2.157,1.452-3.401
				c-0.45-1.878-3.075-1.946-4.972-1.581c-0.701-1.135-0.687-2.554-1.027-3.844c-0.34-1.29-1.366-2.644-2.69-2.482
				c-1.248,0.152-2.01,1.56-3.233,1.849c-1.421,0.335-2.651-0.921-3.765-1.864c-1.114-0.943-3.063-1.531-3.831-0.289
				c-0.46,0.743-0.184,1.779-0.662,2.511c-0.828,1.268-2.791,0.481-4.009-0.418c-1.219-0.899-3.16-1.714-4.018-0.465
				c-0.263,0.382-0.32,0.864-0.472,1.303c-0.576,1.664-2.375,2.492-3.775,3.559c-1.401,1.067-2.51,3.189-1.325,4.491
				c0.585,0.642,1.613,0.903,1.904,1.721c0.363,1.023-0.682,1.94-1.509,2.643c-1.377,1.171-1.626,4.675,0.194,5.633
				c0.764,0.402,1.885,0.526,2.072,1.369c0.168,0.754-0.597,1.34-1.105,1.921c-1.396,1.596-0.805,4.469,1.107,5.385
				c0.437,0.209,0.974,0.381,1.136,0.838c0.116,0.327-0.011,0.683-0.104,1.017c-0.177,0.632-0.237,1.297-0.175,1.95
				c0.021,0.224,0.067,0.466,0.237,0.612c0.154,0.133,0.373,0.153,0.577,0.162c2.628,0.117,3.896-0.813,5.501,1.474
				c0.154,0.22,0.315,0.446,0.547,0.581c0.217,0.127,0.475,0.16,0.725,0.181c1.807,0.149,2.988-0.979,4.639-1.189
				c2.291-0.292,2.777,0.889,4.795,1.838C172.151,210.214,173.69,209.295,174.286,207.132z"/>
			<path style="fill:#EBEBEB;" d="M144.015,203.861c0.152-0.551,0.243-1.182,0.284-1.877c0.231-3.894,3.949-3.277,7.112-3.806
				c2.471-0.413-4.072-6.655,0.91-8.669c0.925-0.374,1.931-0.797,2.404-1.676c0.626-1.162-0.007-2.692-1.085-3.455
				c-1.078-0.762-2.463-0.924-3.783-0.948c-0.813-0.988-0.152-2.475,0.635-3.484c0.786-1.009,1.75-2.157,1.451-3.401
				c-0.45-1.878-3.075-1.946-4.972-1.581c-0.701-1.135-0.687-2.554-1.027-3.844c-0.34-1.29-1.366-2.644-2.69-2.482
				c-1.247,0.152-2.01,1.561-3.233,1.849c-1.421,0.335-2.651-0.921-3.765-1.864s-3.063-1.531-3.831-0.289
				c-0.46,0.743-0.184,1.779-0.662,2.511c-0.828,1.268-2.79,0.481-4.009-0.418c-1.219-0.899-3.16-1.714-4.017-0.465
				c-0.263,0.382-0.32,0.864-0.472,1.303c-0.576,1.664-2.375,2.492-3.775,3.559c-1.401,1.067-2.51,3.189-1.325,4.491
				c0.585,0.642,1.613,0.903,1.904,1.721c0.363,1.023-0.682,1.939-1.509,2.643c-1.377,1.171-1.626,4.675,0.194,5.633
				c0.764,0.402,1.885,0.526,2.072,1.369c0.168,0.754-0.597,1.34-1.105,1.921c-1.396,1.596-0.805,4.469,1.107,5.386
				c0.437,0.209,0.974,0.381,1.136,0.838c0.116,0.327-0.011,0.683-0.104,1.017c-0.177,0.632-0.237,1.297-0.175,1.95
				c0.021,0.223,0.067,0.466,0.237,0.612c0.154,0.133,0.373,0.153,0.577,0.163c2.629,0.117,3.896-0.813,5.501,1.474
				c0.154,0.22,0.316,0.446,0.547,0.581c0.217,0.126,0.475,0.16,0.725,0.181c1.807,0.149,2.988-0.979,4.639-1.189
				c2.291-0.292,2.776,0.889,4.795,1.838C141.88,206.944,143.419,206.024,144.015,203.861z"/>
			<path style="fill:#EBEBEB;" d="M141.098,184.583c0.152-0.551,0.242-1.182,0.284-1.878c0.231-3.894,3.949-3.277,7.112-3.806
				c2.471-0.413-4.072-6.655,0.91-8.669c0.925-0.374,1.931-0.797,2.404-1.676c0.626-1.162-0.007-2.692-1.085-3.455
				c-1.078-0.762-2.463-0.924-3.783-0.948c-0.813-0.988-0.152-2.475,0.635-3.484s1.75-2.157,1.452-3.401
				c-0.45-1.878-3.075-1.946-4.972-1.581c-0.701-1.135-0.687-2.554-1.027-3.844c-0.34-1.29-1.366-2.644-2.69-2.482
				c-1.247,0.152-2.01,1.561-3.233,1.849c-1.421,0.335-2.651-0.921-3.765-1.864c-1.114-0.942-3.063-1.531-3.831-0.289
				c-0.46,0.743-0.184,1.779-0.662,2.511c-0.828,1.268-2.791,0.481-4.009-0.418c-1.219-0.899-3.16-1.714-4.017-0.465
				c-0.263,0.382-0.32,0.864-0.472,1.303c-0.576,1.664-2.375,2.492-3.776,3.559c-1.401,1.067-2.51,3.189-1.325,4.491
				c0.585,0.642,1.613,0.903,1.904,1.721c0.363,1.023-0.682,1.939-1.509,2.643c-1.377,1.171-1.626,4.675,0.194,5.633
				c0.764,0.402,1.885,0.526,2.072,1.369c0.168,0.754-0.597,1.34-1.105,1.921c-1.396,1.596-0.805,4.47,1.107,5.386
				c0.437,0.209,0.974,0.381,1.136,0.838c0.116,0.327-0.011,0.683-0.104,1.017c-0.177,0.632-0.237,1.297-0.175,1.95
				c0.021,0.223,0.067,0.466,0.237,0.612c0.154,0.133,0.373,0.153,0.577,0.163c2.629,0.117,3.896-0.813,5.501,1.474
				c0.154,0.22,0.315,0.446,0.547,0.581c0.217,0.126,0.475,0.16,0.725,0.181c1.807,0.149,2.988-0.979,4.639-1.189
				c2.291-0.292,2.777,0.889,4.795,1.838C138.962,187.666,140.501,186.746,141.098,184.583z"/>
			<path style="fill:#EBEBEB;" d="M121.157,194.185c0.152-0.551,0.243-1.182,0.284-1.878c0.231-3.894,3.949-3.277,7.112-3.806
				c2.471-0.413-4.072-6.655,0.91-8.669c0.925-0.374,1.931-0.797,2.404-1.676c0.626-1.162-0.007-2.692-1.085-3.454
				c-1.078-0.762-2.463-0.924-3.783-0.948c-0.813-0.988-0.152-2.475,0.635-3.484c0.786-1.009,1.75-2.157,1.452-3.401
				c-0.45-1.879-3.075-1.946-4.972-1.581c-0.701-1.135-0.687-2.554-1.027-3.844c-0.34-1.29-1.366-2.644-2.69-2.482
				c-1.247,0.152-2.01,1.561-3.233,1.849c-1.421,0.335-2.651-0.921-3.765-1.864c-1.114-0.942-3.063-1.531-3.831-0.289
				c-0.46,0.743-0.184,1.779-0.662,2.511c-0.828,1.268-2.79,0.481-4.009-0.418c-1.219-0.899-3.16-1.714-4.017-0.465
				c-0.263,0.382-0.32,0.864-0.472,1.303c-0.576,1.664-2.375,2.492-3.775,3.559c-1.4,1.067-2.51,3.189-1.325,4.491
				c0.585,0.642,1.613,0.903,1.904,1.721c0.363,1.023-0.682,1.94-1.509,2.643c-1.377,1.171-1.626,4.675,0.194,5.633
				c0.764,0.402,1.885,0.526,2.072,1.369c0.168,0.754-0.597,1.34-1.105,1.921c-1.396,1.596-0.805,4.469,1.107,5.385
				c0.437,0.209,0.974,0.381,1.136,0.838c0.116,0.327-0.011,0.683-0.104,1.017c-0.177,0.632-0.237,1.297-0.175,1.95
				c0.021,0.223,0.067,0.466,0.237,0.612c0.155,0.133,0.373,0.153,0.577,0.162c2.628,0.117,3.896-0.813,5.501,1.474
				c0.154,0.22,0.315,0.446,0.547,0.581c0.217,0.127,0.475,0.16,0.725,0.181c1.807,0.149,2.988-0.979,4.639-1.189
				c2.291-0.292,2.776,0.889,4.795,1.838C119.022,197.268,120.561,196.348,121.157,194.185z"/>
			<path style="fill:#EBEBEB;" d="M101.004,189.75c0.152-0.551,0.243-1.182,0.284-1.878c0.231-3.894,3.949-3.277,7.112-3.806
				c2.471-0.413-4.072-6.655,0.91-8.669c0.925-0.374,1.931-0.797,2.404-1.676c0.626-1.162-0.007-2.692-1.085-3.455
				c-1.078-0.762-2.463-0.924-3.783-0.948c-0.813-0.988-0.152-2.475,0.635-3.484c0.786-1.009,1.75-2.157,1.452-3.401
				c-0.45-1.878-3.075-1.946-4.972-1.581c-0.701-1.135-0.687-2.554-1.027-3.844c-0.34-1.29-1.366-2.644-2.69-2.482
				c-1.247,0.152-2.01,1.561-3.233,1.849c-1.421,0.335-2.651-0.922-3.765-1.864c-1.114-0.942-3.063-1.531-3.831-0.289
				c-0.459,0.743-0.184,1.779-0.662,2.511c-0.828,1.268-2.791,0.481-4.009-0.418c-1.219-0.899-3.16-1.714-4.017-0.466
				c-0.263,0.382-0.32,0.864-0.472,1.303c-0.576,1.664-2.375,2.492-3.775,3.559c-1.401,1.067-2.51,3.189-1.325,4.491
				c0.585,0.642,1.613,0.902,1.904,1.721c0.363,1.023-0.682,1.94-1.509,2.643c-1.377,1.171-1.626,4.675,0.194,5.633
				c0.764,0.402,1.885,0.526,2.072,1.369c0.168,0.754-0.597,1.34-1.105,1.921c-1.396,1.596-0.805,4.47,1.107,5.386
				c0.437,0.209,0.974,0.381,1.136,0.838c0.116,0.327-0.011,0.683-0.104,1.017c-0.177,0.632-0.237,1.297-0.175,1.95
				c0.021,0.223,0.067,0.466,0.237,0.612c0.155,0.133,0.373,0.153,0.577,0.163c2.628,0.117,3.896-0.813,5.501,1.474
				c0.154,0.22,0.315,0.446,0.547,0.581c0.217,0.126,0.475,0.16,0.725,0.181c1.807,0.149,2.988-0.979,4.639-1.189
				c2.291-0.292,2.777,0.889,4.795,1.838C98.869,192.833,100.408,191.913,101.004,189.75z"/>
			<path style="fill:#EBEBEB;" d="M100.741,211.308c0.12-0.434,0.191-0.931,0.223-1.478c0.182-3.066,3.11-2.581,5.6-2.997
				c1.946-0.325-3.206-5.24,0.717-6.826c0.729-0.294,1.521-0.628,1.893-1.319c0.493-0.915-0.006-2.12-0.854-2.72
				c-0.849-0.6-1.939-0.727-2.978-0.747c-0.64-0.778-0.119-1.949,0.5-2.743c0.619-0.794,1.378-1.698,1.143-2.678
				c-0.354-1.479-2.421-1.532-3.915-1.245c-0.552-0.894-0.541-2.011-0.809-3.027c-0.268-1.016-1.076-2.082-2.118-1.955
				c-0.982,0.12-1.582,1.229-2.546,1.456c-1.118,0.264-2.087-0.726-2.964-1.468c-0.878-0.742-2.412-1.205-3.017-0.228
				c-0.362,0.585-0.145,1.401-0.521,1.977c-0.652,0.999-2.197,0.379-3.157-0.329c-0.96-0.708-2.488-1.349-3.163-0.366
				c-0.207,0.301-0.252,0.681-0.372,1.026c-0.454,1.31-1.87,1.962-2.973,2.803c-1.103,0.84-1.977,2.511-1.043,3.536
				c0.46,0.506,1.27,0.711,1.499,1.355c0.286,0.805-0.537,1.527-1.188,2.081c-1.084,0.922-1.28,3.681,0.153,4.435
				c0.602,0.317,1.484,0.414,1.632,1.078c0.132,0.593-0.47,1.055-0.87,1.513c-1.099,1.257-0.634,3.519,0.872,4.241
				c0.344,0.165,0.767,0.3,0.894,0.66c0.091,0.257-0.008,0.538-0.082,0.801c-0.14,0.498-0.187,1.021-0.138,1.536
				c0.017,0.176,0.053,0.367,0.187,0.482c0.122,0.104,0.294,0.121,0.454,0.128c2.07,0.092,3.068-0.64,4.331,1.161
				c0.121,0.173,0.248,0.351,0.431,0.458c0.171,0.1,0.374,0.126,0.571,0.142c1.423,0.117,2.353-0.771,3.653-0.936
				c1.804-0.23,2.186,0.7,3.775,1.447C99.06,213.735,100.271,213.011,100.741,211.308z"/>
			<path style="fill:#EBEBEB;" d="M89.449,203.861c0.152-0.551,0.243-1.182,0.284-1.877c0.231-3.894,3.949-3.277,7.112-3.806
				c2.471-0.413-4.072-6.655,0.91-8.669c0.925-0.374,1.931-0.797,2.404-1.676c0.626-1.162-0.007-2.692-1.085-3.455
				c-1.078-0.762-2.463-0.924-3.783-0.948c-0.813-0.988-0.152-2.475,0.635-3.484s1.75-2.157,1.452-3.401
				c-0.45-1.878-3.075-1.946-4.972-1.581c-0.701-1.135-0.687-2.554-1.027-3.844c-0.34-1.29-1.366-2.644-2.69-2.482
				c-1.248,0.152-2.01,1.561-3.233,1.849c-1.421,0.335-2.651-0.921-3.765-1.864s-3.063-1.531-3.831-0.289
				c-0.46,0.743-0.184,1.779-0.662,2.511c-0.828,1.268-2.791,0.481-4.009-0.418c-1.219-0.899-3.16-1.714-4.018-0.465
				c-0.263,0.382-0.32,0.864-0.472,1.303c-0.576,1.664-2.375,2.492-3.776,3.559c-1.401,1.067-2.51,3.189-1.325,4.491
				c0.585,0.642,1.613,0.903,1.904,1.721c0.363,1.023-0.682,1.939-1.509,2.643c-1.377,1.171-1.626,4.675,0.194,5.633
				c0.764,0.402,1.885,0.526,2.072,1.369c0.168,0.754-0.597,1.34-1.105,1.921c-1.396,1.596-0.805,4.469,1.107,5.386
				c0.437,0.209,0.974,0.381,1.136,0.838c0.116,0.327-0.011,0.683-0.104,1.017c-0.177,0.632-0.237,1.297-0.175,1.95
				c0.021,0.223,0.067,0.466,0.237,0.612c0.154,0.133,0.373,0.153,0.577,0.163c2.628,0.117,3.896-0.813,5.501,1.474
				c0.154,0.22,0.315,0.446,0.547,0.581c0.217,0.126,0.475,0.16,0.725,0.181c1.807,0.149,2.988-0.979,4.639-1.189
				c2.291-0.292,2.777,0.889,4.795,1.838C87.313,206.944,88.852,206.024,89.449,203.861z"/>
			<path style="fill:#EBEBEB;" d="M121.157,170.472c0.152-0.551,0.243-1.182,0.284-1.878c0.231-3.894,3.949-3.277,7.112-3.806
				c2.471-0.413-4.072-6.655,0.91-8.669c0.925-0.374,1.931-0.797,2.404-1.676c0.626-1.162-0.007-2.692-1.085-3.455
				c-1.078-0.762-2.463-0.924-3.783-0.948c-0.813-0.988-0.152-2.475,0.635-3.484c0.786-1.009,1.75-2.157,1.452-3.401
				c-0.45-1.878-3.075-1.946-4.972-1.581c-0.701-1.135-0.687-2.554-1.027-3.844c-0.34-1.29-1.366-2.644-2.69-2.482
				c-1.247,0.152-2.01,1.56-3.233,1.849c-1.421,0.335-2.651-0.922-3.765-1.864c-1.114-0.942-3.063-1.531-3.831-0.289
				c-0.46,0.743-0.184,1.779-0.662,2.511c-0.828,1.268-2.79,0.481-4.009-0.418c-1.219-0.899-3.16-1.714-4.017-0.465
				c-0.263,0.382-0.32,0.864-0.472,1.303c-0.576,1.664-2.375,2.492-3.775,3.559c-1.4,1.067-2.51,3.189-1.325,4.491
				c0.585,0.642,1.613,0.902,1.904,1.721c0.363,1.023-0.682,1.94-1.509,2.643c-1.377,1.171-1.626,4.675,0.194,5.633
				c0.764,0.402,1.885,0.526,2.072,1.369c0.168,0.754-0.597,1.34-1.105,1.921c-1.396,1.596-0.805,4.469,1.107,5.386
				c0.437,0.209,0.974,0.381,1.136,0.838c0.116,0.327-0.011,0.683-0.104,1.017c-0.177,0.632-0.237,1.297-0.175,1.95
				c0.021,0.223,0.067,0.466,0.237,0.612c0.155,0.133,0.373,0.153,0.577,0.163c2.628,0.117,3.896-0.813,5.501,1.474
				c0.154,0.22,0.315,0.446,0.547,0.581c0.217,0.127,0.475,0.16,0.725,0.181c1.807,0.149,2.988-0.979,4.639-1.189
				c2.291-0.292,2.776,0.889,4.795,1.838C119.022,173.555,120.561,172.635,121.157,170.472z"/>
			<path style="fill:#EBEBEB;" d="M147.047,171.796c0.152-0.551,0.242-1.182,0.284-1.878c0.231-3.894,3.949-3.277,7.112-3.806
				c2.471-0.413-4.072-6.655,0.91-8.669c0.925-0.374,1.931-0.797,2.404-1.676c0.626-1.162-0.007-2.692-1.085-3.454
				c-1.078-0.762-2.463-0.924-3.783-0.949c-0.813-0.988-0.152-2.475,0.635-3.484c0.786-1.009,1.75-2.157,1.452-3.401
				c-0.45-1.879-3.075-1.946-4.972-1.581c-0.701-1.135-0.687-2.554-1.027-3.844c-0.34-1.29-1.366-2.644-2.69-2.482
				c-1.248,0.152-2.01,1.56-3.233,1.849c-1.421,0.335-2.651-0.922-3.765-1.864c-1.114-0.943-3.063-1.531-3.831-0.289
				c-0.46,0.743-0.184,1.779-0.662,2.511c-0.828,1.268-2.791,0.481-4.009-0.418c-1.219-0.899-3.16-1.714-4.017-0.465
				c-0.263,0.382-0.32,0.864-0.472,1.303c-0.576,1.664-2.375,2.492-3.775,3.559c-1.401,1.067-2.51,3.189-1.325,4.491
				c0.585,0.642,1.613,0.903,1.904,1.721c0.363,1.023-0.682,1.939-1.509,2.643c-1.377,1.171-1.626,4.675,0.194,5.633
				c0.764,0.402,1.885,0.526,2.072,1.369c0.168,0.754-0.597,1.34-1.105,1.921c-1.396,1.596-0.805,4.469,1.107,5.385
				c0.437,0.209,0.974,0.381,1.136,0.838c0.116,0.327-0.011,0.683-0.104,1.017c-0.177,0.632-0.237,1.297-0.175,1.95
				c0.021,0.224,0.067,0.466,0.237,0.612c0.155,0.133,0.373,0.153,0.577,0.162c2.628,0.117,3.896-0.813,5.501,1.474
				c0.154,0.22,0.315,0.446,0.547,0.581c0.217,0.127,0.475,0.16,0.725,0.181c1.807,0.149,2.988-0.979,4.639-1.189
				c2.291-0.292,2.777,0.889,4.795,1.838C144.912,174.879,146.451,173.959,147.047,171.796z"/>
			<path style="fill:#EBEBEB;" d="M162.773,182.391c0.152-0.551,0.243-1.182,0.284-1.878c0.231-3.894,3.949-3.277,7.112-3.806
				c2.471-0.413-4.072-6.655,0.91-8.669c0.925-0.374,1.931-0.797,2.404-1.676c0.626-1.162-0.007-2.692-1.085-3.454
				c-1.078-0.762-2.463-0.924-3.783-0.949c-0.813-0.988-0.152-2.475,0.635-3.484c0.786-1.009,1.75-2.157,1.452-3.401
				c-0.45-1.878-3.075-1.946-4.972-1.581c-0.701-1.135-0.687-2.554-1.027-3.844s-1.366-2.644-2.69-2.482
				c-1.248,0.152-2.01,1.56-3.233,1.849c-1.421,0.335-2.651-0.921-3.765-1.864c-1.114-0.943-3.063-1.531-3.831-0.289
				c-0.46,0.743-0.184,1.779-0.662,2.511c-0.828,1.268-2.791,0.481-4.009-0.418c-1.219-0.899-3.16-1.714-4.017-0.465
				c-0.263,0.382-0.32,0.864-0.472,1.303c-0.576,1.664-2.375,2.492-3.775,3.559c-1.401,1.067-2.51,3.189-1.325,4.491
				c0.585,0.642,1.613,0.903,1.904,1.721c0.363,1.023-0.682,1.939-1.509,2.643c-1.377,1.171-1.626,4.675,0.194,5.633
				c0.764,0.402,1.885,0.526,2.072,1.369c0.168,0.754-0.597,1.34-1.105,1.921c-1.396,1.596-0.805,4.47,1.107,5.386
				c0.437,0.209,0.974,0.381,1.136,0.838c0.116,0.327-0.011,0.683-0.104,1.017c-0.177,0.632-0.237,1.297-0.175,1.95
				c0.021,0.224,0.067,0.466,0.237,0.612c0.154,0.133,0.373,0.153,0.577,0.163c2.628,0.117,3.896-0.813,5.501,1.474
				c0.154,0.22,0.315,0.446,0.547,0.581c0.217,0.126,0.475,0.16,0.725,0.181c1.807,0.149,2.988-0.979,4.639-1.189
				c2.291-0.292,2.777,0.889,4.795,1.838C160.638,185.474,162.177,184.554,162.773,182.391z"/>
			<path style="fill:#E6E6E6;" d="M158.005,195.783c0,0-6.577,9.298-8.845,12.246c-2.268,2.948-13.607,21.318-15.15,33.467
				c-0.165,1.297-0.327,2.413-0.485,3.389c4.877,32.193,4.112,91.091,3.94,101.175h-15.452c-0.142-11.37-1.455-115.31-1.94-118.484
				c-0.512-3.358-6.972-16.146-16.95-21.4c-9.978-5.254-18.601-22.64-18.601-22.64h3.18c0,0,5.896,10.659,14.287,16.555
				c1.219,0.856,2.48,1.569,3.775,2.238c-0.301-9.605,3.337-18.793,3.337-18.793l1.717,1.587
				c-2.318,9.493-2.013,15.573-1.312,19.066c2.816,1.411,5.738,3.045,8.676,5.806c8.704-11.318,13.598-37.202,13.598-37.202
				l2.229,1.217c0,0-0.724,7.03-2.878,15.875c-1.631,6.699-6.43,19.313-8.663,25.04c2.219,3.082,4.424,7.067,6.575,12.342
				c0.244-0.375,0.519-0.716,0.84-1.007c5.67-5.126,16.328-29.345,16.328-29.345c2.578-5.63-1.361-20.41-1.361-20.41h2.975
				l1.334,12.926l7.484-8.164l1.361,1.134l-7.937,10.205l-4.082,12.929l10.659-11.796L158.005,195.783z"/>
		</g>
		<g>
			<path style="fill:#EBEBEB;" d="M243.203,241.81c-0.116-0.423-0.186-0.907-0.218-1.441c-0.177-2.988-3.03-2.515-5.457-2.92
				c-1.896-0.317,3.124-5.106-0.698-6.651c-0.71-0.287-1.482-0.611-1.845-1.286c-0.48-0.892,0.006-2.066,0.833-2.65
				c0.827-0.585,1.89-0.709,2.902-0.728c0.624-0.758,0.117-1.899-0.487-2.673c-0.604-0.774-1.342-1.655-1.114-2.609
				c0.345-1.441,2.36-1.493,3.815-1.213c0.538-0.871,0.527-1.96,0.788-2.95c0.261-0.99,1.048-2.029,2.064-1.905
				c0.957,0.117,1.542,1.197,2.48,1.418c1.09,0.257,2.034-0.707,2.889-1.43c0.855-0.723,2.35-1.174,2.939-0.222
				c0.353,0.57,0.141,1.365,0.508,1.927c0.635,0.973,2.141,0.369,3.076-0.321c0.935-0.69,2.425-1.315,3.082-0.357
				c0.202,0.293,0.246,0.663,0.362,0.999c0.442,1.277,1.822,1.912,2.897,2.731c1.075,0.819,1.926,2.447,1.017,3.446
				c-0.449,0.493-1.238,0.693-1.461,1.321c-0.279,0.785,0.523,1.488,1.158,2.028c1.056,0.898,1.248,3.587-0.149,4.322
				c-0.586,0.309-1.446,0.403-1.59,1.05c-0.129,0.578,0.458,1.028,0.848,1.474c1.071,1.225,0.617,3.429-0.85,4.132
				c-0.335,0.161-0.747,0.292-0.871,0.643c-0.089,0.251,0.008,0.524,0.08,0.78c0.136,0.485,0.182,0.995,0.134,1.497
				c-0.016,0.171-0.051,0.357-0.182,0.47c-0.118,0.102-0.286,0.118-0.443,0.125c-2.017,0.09-2.99-0.624-4.221,1.131
				c-0.118,0.169-0.242,0.342-0.42,0.446c-0.167,0.097-0.364,0.123-0.557,0.139c-1.386,0.114-2.292-0.751-3.559-0.912
				c-1.758-0.224-2.13,0.682-3.679,1.41C244.842,244.176,243.661,243.47,243.203,241.81z"/>
			<path style="fill:#EBEBEB;" d="M266.429,239.301c-0.116-0.423-0.186-0.907-0.218-1.441c-0.178-2.988-3.03-2.515-5.457-2.92
				c-1.896-0.317,3.124-5.106-0.699-6.651c-0.71-0.287-1.482-0.611-1.845-1.286c-0.48-0.892,0.006-2.066,0.833-2.651
				c0.827-0.585,1.89-0.709,2.902-0.728c0.624-0.758,0.117-1.899-0.487-2.673c-0.603-0.774-1.342-1.655-1.114-2.609
				c0.345-1.441,2.359-1.493,3.815-1.213c0.538-0.871,0.527-1.96,0.788-2.95s1.048-2.028,2.064-1.905
				c0.957,0.117,1.542,1.197,2.48,1.419c1.09,0.257,2.034-0.707,2.889-1.43c0.855-0.723,2.35-1.174,2.939-0.222
				c0.353,0.57,0.141,1.365,0.508,1.926c0.635,0.973,2.141,0.369,3.076-0.321c0.935-0.69,2.424-1.315,3.082-0.357
				c0.202,0.293,0.246,0.663,0.362,0.999c0.442,1.276,1.822,1.912,2.897,2.731c1.075,0.819,1.926,2.447,1.017,3.446
				c-0.449,0.493-1.238,0.693-1.461,1.321c-0.279,0.785,0.523,1.488,1.158,2.028c1.056,0.898,1.248,3.587-0.149,4.322
				c-0.586,0.309-1.446,0.403-1.59,1.05c-0.129,0.578,0.458,1.028,0.848,1.474c1.071,1.225,0.618,3.429-0.849,4.132
				c-0.335,0.161-0.747,0.292-0.871,0.643c-0.089,0.251,0.008,0.524,0.08,0.78c0.136,0.485,0.182,0.995,0.134,1.497
				c-0.016,0.171-0.051,0.357-0.182,0.47c-0.119,0.102-0.286,0.118-0.443,0.125c-2.017,0.09-2.99-0.624-4.22,1.131
				c-0.118,0.169-0.242,0.342-0.42,0.446c-0.167,0.097-0.364,0.123-0.556,0.139c-1.386,0.114-2.293-0.751-3.559-0.912
				c-1.758-0.224-2.13,0.682-3.679,1.41C268.068,241.666,266.887,240.96,266.429,239.301z"/>
			<path style="fill:#EBEBEB;" d="M268.668,224.51c-0.117-0.423-0.186-0.907-0.218-1.441c-0.177-2.988-3.03-2.515-5.457-2.92
				c-1.896-0.317,3.124-5.106-0.698-6.651c-0.71-0.287-1.482-0.611-1.845-1.286c-0.48-0.892,0.006-2.066,0.833-2.651
				c0.827-0.585,1.89-0.709,2.902-0.728c0.624-0.758,0.116-1.899-0.487-2.673c-0.604-0.774-1.342-1.655-1.114-2.609
				c0.345-1.441,2.36-1.493,3.815-1.213c0.538-0.871,0.527-1.96,0.788-2.95c0.261-0.99,1.048-2.028,2.064-1.905
				c0.957,0.117,1.542,1.197,2.48,1.419c1.09,0.257,2.034-0.707,2.889-1.43c0.855-0.723,2.35-1.174,2.939-0.222
				c0.353,0.57,0.142,1.365,0.508,1.926c0.635,0.973,2.141,0.369,3.076-0.321c0.935-0.69,2.425-1.315,3.082-0.357
				c0.202,0.293,0.246,0.663,0.362,1c0.442,1.276,1.822,1.912,2.897,2.731c1.075,0.819,1.926,2.447,1.017,3.446
				c-0.449,0.493-1.238,0.693-1.461,1.321c-0.279,0.785,0.523,1.488,1.158,2.028c1.056,0.898,1.248,3.587-0.149,4.322
				c-0.586,0.309-1.446,0.403-1.59,1.05c-0.129,0.578,0.458,1.028,0.848,1.474c1.071,1.225,0.617,3.429-0.85,4.132
				c-0.335,0.161-0.747,0.292-0.871,0.643c-0.089,0.251,0.008,0.524,0.08,0.78c0.136,0.485,0.182,0.995,0.134,1.497
				c-0.016,0.171-0.051,0.357-0.182,0.47c-0.118,0.102-0.286,0.118-0.443,0.125c-2.017,0.09-2.99-0.624-4.221,1.131
				c-0.118,0.169-0.242,0.342-0.42,0.446c-0.167,0.097-0.364,0.123-0.556,0.139c-1.386,0.114-2.293-0.751-3.559-0.912
				c-1.758-0.224-2.13,0.682-3.679,1.41C270.306,226.875,269.125,226.169,268.668,224.51z"/>
			<path style="fill:#EBEBEB;" d="M283.967,231.877c-0.116-0.423-0.186-0.907-0.218-1.441c-0.177-2.988-3.03-2.514-5.457-2.92
				c-1.896-0.317,3.124-5.106-0.699-6.651c-0.71-0.287-1.482-0.611-1.845-1.286c-0.48-0.892,0.006-2.066,0.832-2.65
				c0.827-0.585,1.89-0.709,2.902-0.728c0.623-0.758,0.116-1.899-0.487-2.673c-0.603-0.774-1.342-1.655-1.114-2.609
				c0.345-1.441,2.359-1.493,3.815-1.213c0.538-0.871,0.527-1.96,0.788-2.95s1.048-2.029,2.064-1.905
				c0.957,0.117,1.542,1.197,2.481,1.418c1.09,0.257,2.034-0.707,2.889-1.43c0.855-0.723,2.35-1.174,2.939-0.222
				c0.353,0.57,0.141,1.365,0.508,1.927c0.635,0.973,2.141,0.369,3.076-0.321c0.935-0.69,2.424-1.315,3.082-0.357
				c0.202,0.293,0.246,0.663,0.362,1c0.442,1.276,1.822,1.912,2.897,2.731c1.075,0.819,1.926,2.447,1.017,3.446
				c-0.449,0.493-1.238,0.693-1.461,1.321c-0.279,0.785,0.523,1.488,1.158,2.028c1.056,0.898,1.248,3.587-0.149,4.322
				c-0.586,0.309-1.446,0.403-1.59,1.05c-0.129,0.578,0.458,1.028,0.848,1.474c1.071,1.225,0.618,3.429-0.849,4.132
				c-0.335,0.161-0.747,0.292-0.871,0.643c-0.089,0.251,0.008,0.524,0.08,0.78c0.136,0.485,0.182,0.995,0.134,1.496
				c-0.016,0.172-0.051,0.357-0.182,0.47c-0.119,0.102-0.286,0.118-0.443,0.125c-2.017,0.09-2.99-0.624-4.22,1.131
				c-0.118,0.168-0.242,0.342-0.42,0.446c-0.167,0.097-0.364,0.123-0.556,0.139c-1.386,0.114-2.293-0.751-3.559-0.912
				c-1.758-0.224-2.13,0.682-3.679,1.41C285.605,234.242,284.425,233.536,283.967,231.877z"/>
			<path style="fill:#EBEBEB;" d="M299.43,228.474c-0.117-0.423-0.186-0.907-0.218-1.441c-0.178-2.988-3.03-2.514-5.457-2.92
				c-1.896-0.317,3.124-5.106-0.699-6.651c-0.71-0.287-1.482-0.611-1.845-1.286c-0.48-0.892,0.006-2.066,0.833-2.65
				c0.827-0.585,1.89-0.709,2.902-0.728c0.624-0.758,0.116-1.899-0.487-2.673c-0.603-0.774-1.342-1.655-1.114-2.61
				c0.345-1.441,2.36-1.493,3.815-1.213c0.538-0.871,0.527-1.96,0.788-2.949s1.048-2.029,2.064-1.905
				c0.957,0.117,1.542,1.197,2.48,1.419c1.09,0.257,2.034-0.707,2.889-1.43c0.855-0.723,2.35-1.174,2.939-0.222
				c0.353,0.57,0.142,1.365,0.508,1.926c0.635,0.973,2.141,0.369,3.076-0.321s2.424-1.315,3.082-0.357
				c0.202,0.293,0.246,0.663,0.362,0.999c0.442,1.277,1.822,1.912,2.897,2.731c1.075,0.819,1.926,2.447,1.017,3.446
				c-0.449,0.493-1.238,0.693-1.461,1.321c-0.279,0.785,0.523,1.488,1.158,2.028c1.056,0.898,1.248,3.587-0.149,4.322
				c-0.586,0.309-1.446,0.403-1.59,1.05c-0.129,0.578,0.458,1.028,0.848,1.474c1.071,1.225,0.617,3.429-0.85,4.132
				c-0.335,0.161-0.747,0.292-0.871,0.643c-0.089,0.251,0.008,0.524,0.08,0.78c0.136,0.485,0.182,0.995,0.134,1.496
				c-0.016,0.172-0.051,0.357-0.182,0.47c-0.118,0.102-0.286,0.118-0.443,0.125c-2.017,0.09-2.99-0.624-4.221,1.131
				c-0.118,0.169-0.242,0.342-0.42,0.446c-0.167,0.097-0.364,0.123-0.556,0.139c-1.386,0.114-2.293-0.751-3.559-0.912
				c-1.758-0.224-2.13,0.682-3.679,1.41C301.069,230.839,299.888,230.134,299.43,228.474z"/>
			<path style="fill:#EBEBEB;" d="M299.632,245.015c-0.092-0.333-0.147-0.714-0.171-1.134c-0.14-2.353-2.386-1.98-4.297-2.299
				c-1.493-0.249,2.46-4.021-0.55-5.237c-0.559-0.226-1.167-0.481-1.452-1.012c-0.378-0.702,0.004-1.627,0.656-2.087
				c0.651-0.46,1.488-0.558,2.285-0.573c0.491-0.597,0.092-1.495-0.384-2.105c-0.475-0.61-1.057-1.303-0.877-2.055
				c0.272-1.135,1.858-1.176,3.004-0.955c0.423-0.686,0.415-1.543,0.621-2.322c0.205-0.779,0.825-1.597,1.625-1.5
				c0.754,0.092,1.214,0.943,1.953,1.117c0.858,0.202,1.601-0.557,2.275-1.126c0.673-0.569,1.851-0.925,2.314-0.175
				c0.278,0.449,0.111,1.075,0.4,1.517c0.5,0.766,1.686,0.291,2.422-0.253c0.736-0.543,1.909-1.035,2.427-0.281
				c0.159,0.231,0.194,0.522,0.285,0.787c0.348,1.005,1.435,1.506,2.281,2.15c0.846,0.645,1.517,1.926,0.801,2.713
				c-0.353,0.388-0.975,0.545-1.15,1.04c-0.219,0.618,0.412,1.172,0.912,1.597c0.832,0.708,0.982,2.824-0.117,3.403
				c-0.462,0.243-1.139,0.318-1.252,0.827c-0.101,0.455,0.361,0.81,0.668,1.161c0.843,0.964,0.486,2.7-0.669,3.254
				c-0.264,0.126-0.588,0.23-0.686,0.506c-0.07,0.198,0.006,0.413,0.063,0.615c0.107,0.382,0.143,0.784,0.106,1.178
				c-0.013,0.135-0.04,0.281-0.143,0.37c-0.093,0.08-0.226,0.093-0.348,0.098c-1.588,0.071-2.354-0.491-3.323,0.89
				c-0.093,0.133-0.191,0.27-0.331,0.351c-0.131,0.076-0.287,0.097-0.438,0.109c-1.092,0.09-1.805-0.591-2.803-0.718
				c-1.384-0.176-1.677,0.537-2.897,1.111C300.922,246.877,299.992,246.321,299.632,245.015z"/>
			<path style="fill:#EBEBEB;" d="M308.296,239.301c-0.117-0.423-0.186-0.907-0.218-1.441c-0.177-2.988-3.03-2.515-5.457-2.92
				c-1.896-0.317,3.124-5.106-0.698-6.651c-0.71-0.287-1.482-0.611-1.845-1.286c-0.48-0.892,0.006-2.066,0.833-2.651
				c0.827-0.585,1.89-0.709,2.902-0.728c0.624-0.758,0.116-1.899-0.487-2.673c-0.603-0.774-1.342-1.655-1.114-2.609
				c0.345-1.441,2.36-1.493,3.815-1.213c0.538-0.871,0.527-1.96,0.788-2.95s1.048-2.028,2.064-1.905
				c0.957,0.117,1.542,1.197,2.48,1.419c1.09,0.257,2.034-0.707,2.889-1.43c0.855-0.723,2.35-1.174,2.939-0.222
				c0.353,0.57,0.142,1.365,0.508,1.926c0.635,0.973,2.141,0.369,3.076-0.321s2.424-1.315,3.082-0.357
				c0.202,0.293,0.246,0.663,0.362,0.999c0.442,1.276,1.822,1.912,2.897,2.731c1.075,0.819,1.926,2.447,1.017,3.446
				c-0.449,0.493-1.238,0.693-1.461,1.321c-0.279,0.785,0.523,1.488,1.158,2.028c1.056,0.898,1.248,3.587-0.149,4.322
				c-0.586,0.309-1.446,0.403-1.59,1.05c-0.129,0.578,0.458,1.028,0.848,1.474c1.071,1.225,0.617,3.429-0.85,4.132
				c-0.335,0.161-0.747,0.292-0.871,0.643c-0.089,0.251,0.008,0.524,0.08,0.78c0.136,0.485,0.182,0.995,0.134,1.497
				c-0.016,0.171-0.051,0.357-0.182,0.47c-0.118,0.102-0.286,0.118-0.443,0.125c-2.017,0.09-2.99-0.624-4.221,1.131
				c-0.118,0.169-0.242,0.342-0.42,0.446c-0.167,0.097-0.364,0.123-0.557,0.139c-1.386,0.114-2.292-0.751-3.559-0.912
				c-1.758-0.224-2.13,0.682-3.679,1.41C309.935,241.666,308.754,240.96,308.296,239.301z"/>
			<path style="fill:#EBEBEB;" d="M283.967,213.683c-0.116-0.423-0.186-0.907-0.218-1.441c-0.177-2.988-3.03-2.515-5.457-2.92
				c-1.896-0.317,3.124-5.106-0.699-6.651c-0.71-0.287-1.482-0.611-1.845-1.286c-0.48-0.892,0.006-2.066,0.832-2.65
				c0.827-0.585,1.89-0.709,2.902-0.728c0.623-0.758,0.116-1.899-0.487-2.673c-0.603-0.774-1.342-1.655-1.114-2.609
				c0.345-1.441,2.359-1.493,3.815-1.213c0.538-0.871,0.527-1.96,0.788-2.949s1.048-2.029,2.064-1.905
				c0.957,0.117,1.542,1.197,2.481,1.419c1.09,0.257,2.034-0.707,2.889-1.43c0.855-0.723,2.35-1.174,2.939-0.222
				c0.353,0.57,0.141,1.365,0.508,1.926c0.635,0.973,2.141,0.369,3.076-0.321c0.935-0.69,2.424-1.315,3.082-0.357
				c0.202,0.294,0.246,0.663,0.362,0.999c0.442,1.277,1.822,1.912,2.897,2.731c1.075,0.819,1.926,2.447,1.017,3.446
				c-0.449,0.493-1.238,0.692-1.461,1.321c-0.279,0.785,0.523,1.488,1.158,2.028c1.056,0.898,1.248,3.587-0.149,4.322
				c-0.586,0.309-1.446,0.403-1.59,1.05c-0.129,0.578,0.458,1.028,0.848,1.474c1.071,1.225,0.618,3.429-0.849,4.132
				c-0.335,0.161-0.747,0.292-0.871,0.643c-0.089,0.251,0.008,0.524,0.08,0.78c0.136,0.485,0.182,0.995,0.134,1.496
				c-0.016,0.172-0.051,0.357-0.182,0.47c-0.119,0.102-0.286,0.118-0.443,0.125c-2.017,0.09-2.99-0.624-4.22,1.131
				c-0.118,0.169-0.242,0.342-0.42,0.446c-0.167,0.097-0.364,0.123-0.556,0.139c-1.386,0.114-2.293-0.751-3.559-0.912
				c-1.758-0.224-2.13,0.682-3.679,1.41C285.605,216.048,284.425,215.342,283.967,213.683z"/>
			<path style="fill:#EBEBEB;" d="M264.103,214.699c-0.117-0.423-0.186-0.907-0.218-1.441c-0.177-2.988-3.03-2.515-5.457-2.92
				c-1.896-0.317,3.124-5.106-0.698-6.651c-0.71-0.287-1.482-0.611-1.845-1.286c-0.48-0.892,0.006-2.066,0.833-2.65
				c0.827-0.585,1.89-0.709,2.902-0.728c0.623-0.758,0.116-1.899-0.487-2.673c-0.603-0.774-1.342-1.655-1.114-2.609
				c0.345-1.441,2.359-1.493,3.815-1.213c0.538-0.871,0.527-1.96,0.788-2.95s1.048-2.029,2.064-1.905
				c0.957,0.117,1.542,1.197,2.481,1.419c1.09,0.257,2.034-0.707,2.889-1.43c0.855-0.723,2.35-1.174,2.939-0.222
				c0.353,0.57,0.141,1.365,0.508,1.926c0.635,0.973,2.141,0.369,3.076-0.321c0.935-0.69,2.424-1.315,3.082-0.357
				c0.202,0.293,0.246,0.663,0.362,0.999c0.442,1.277,1.822,1.912,2.897,2.731c1.075,0.819,1.926,2.447,1.017,3.446
				c-0.449,0.493-1.238,0.693-1.461,1.321c-0.279,0.785,0.523,1.488,1.158,2.028c1.056,0.898,1.248,3.587-0.149,4.322
				c-0.586,0.309-1.446,0.404-1.59,1.05c-0.129,0.578,0.458,1.028,0.848,1.474c1.071,1.225,0.617,3.429-0.85,4.132
				c-0.335,0.161-0.747,0.292-0.871,0.643c-0.089,0.251,0.008,0.524,0.08,0.78c0.136,0.485,0.182,0.995,0.134,1.497
				c-0.016,0.171-0.051,0.357-0.182,0.47c-0.119,0.102-0.287,0.118-0.443,0.125c-2.017,0.09-2.99-0.624-4.22,1.131
				c-0.118,0.169-0.242,0.342-0.42,0.446c-0.167,0.097-0.364,0.123-0.556,0.139c-1.386,0.114-2.293-0.751-3.559-0.912
				c-1.758-0.224-2.13,0.682-3.679,1.41C265.741,217.064,264.56,216.358,264.103,214.699z"/>
			<path style="fill:#EBEBEB;" d="M252.037,222.828c-0.117-0.423-0.186-0.907-0.218-1.441c-0.178-2.988-3.03-2.515-5.457-2.92
				c-1.896-0.317,3.124-5.106-0.699-6.651c-0.71-0.287-1.482-0.611-1.845-1.286c-0.48-0.892,0.006-2.066,0.832-2.651
				c0.827-0.585,1.89-0.709,2.902-0.728c0.624-0.758,0.117-1.899-0.487-2.673c-0.603-0.774-1.342-1.655-1.114-2.609
				c0.345-1.441,2.36-1.493,3.815-1.213c0.538-0.871,0.527-1.96,0.788-2.95c0.261-0.99,1.048-2.028,2.064-1.905
				c0.957,0.117,1.542,1.197,2.481,1.418c1.09,0.257,2.034-0.707,2.889-1.43c0.855-0.723,2.35-1.174,2.939-0.222
				c0.353,0.57,0.141,1.365,0.508,1.926c0.635,0.973,2.141,0.369,3.076-0.321c0.935-0.69,2.424-1.315,3.082-0.357
				c0.202,0.293,0.246,0.663,0.362,0.999c0.442,1.276,1.822,1.912,2.897,2.731c1.075,0.819,1.926,2.447,1.017,3.446
				c-0.449,0.493-1.238,0.693-1.461,1.321c-0.279,0.785,0.523,1.488,1.158,2.028c1.056,0.898,1.248,3.587-0.149,4.322
				c-0.586,0.309-1.446,0.403-1.59,1.05c-0.129,0.578,0.458,1.028,0.848,1.474c1.071,1.225,0.617,3.429-0.849,4.132
				c-0.335,0.161-0.747,0.292-0.872,0.643c-0.089,0.251,0.008,0.524,0.08,0.78c0.136,0.485,0.182,0.995,0.134,1.496
				c-0.016,0.172-0.051,0.357-0.182,0.47c-0.119,0.102-0.286,0.118-0.443,0.125c-2.017,0.09-2.99-0.624-4.221,1.131
				c-0.118,0.169-0.242,0.342-0.42,0.446c-0.167,0.097-0.364,0.123-0.557,0.139c-1.386,0.114-2.292-0.751-3.559-0.912
				c-1.758-0.224-2.13,0.682-3.679,1.41C253.675,225.193,252.494,224.487,252.037,222.828z"/>
			<path style="fill:#E6E6E6;" d="M255.695,233.103c0,0,5.046,7.134,6.786,9.396c1.74,2.262,10.44,16.356,11.624,25.678
				c0.127,0.995,0.251,1.851,0.372,2.6c-3.742,24.701-3.155,69.892-3.023,77.629h11.855c0.109-8.724,1.117-88.474,1.488-90.909
				c0.393-2.576,5.349-12.388,13.005-16.419c7.656-4.031,14.272-17.371,14.272-17.371h-2.44c0,0-4.524,8.178-10.962,12.702
				c-0.935,0.657-1.903,1.204-2.897,1.717c0.231-7.37-2.56-14.419-2.56-14.419l-1.317,1.218c1.779,7.284,1.545,11.949,1.006,14.629
				c-2.161,1.083-4.402,2.336-6.657,4.455c-6.678-8.684-10.433-28.544-10.433-28.544l-1.71,0.934c0,0,0.556,5.394,2.208,12.18
				c1.251,5.14,4.934,14.818,6.647,19.212c-1.703,2.365-3.394,5.422-5.044,9.469c-0.187-0.288-0.398-0.55-0.644-0.772
				c-4.35-3.933-12.528-22.516-12.528-22.516c-1.978-4.32,1.044-15.66,1.044-15.66h-2.283l-1.023,9.918l-5.742-6.264l-1.044,0.87
				l6.09,7.83l3.132,9.92l-8.178-9.05L255.695,233.103z"/>
		</g>
		<g>
			<g>
				<g>
					<path style="fill:#E0E0E0;" d="M409.988,187.94h-2.963v-5h2.963c0.625,0,1.133-0.508,1.133-1.132V107.53
						c0-0.624-0.508-1.132-1.133-1.132h-2.963v-5h2.963c3.382,0,6.133,2.751,6.133,6.132v74.277
						C416.121,185.189,413.37,187.94,409.988,187.94z"/>
				</g>
				<path style="fill:#E0E0E0;" d="M418.326,368.85c-0.409-0.557-1.059-0.886-1.75-0.886h-9.338h-0.776h-8.988
					c-0.691,0-1.341,0.329-1.75,0.886l-6.758,9.201h17.496h0.776h17.846L418.326,368.85z"/>
				<path style="fill:#E0E0E0;" d="M409.741,99.878c0-1.5-1.216-2.716-2.716-2.716c-1.5,0-2.716,1.216-2.716,2.716
					c0,0.133,0.021,0.26,0.039,0.388h-0.039v267.699h5.431V100.266h-0.039C409.721,100.138,409.741,100.011,409.741,99.878z"/>
				<g>
					<path style="fill:#E0E0E0;" d="M407.025,192.103h-4.06c-2.784,0-5.049-2.265-5.049-5.049v-59.136
						c0-2.784,2.265-5.049,5.049-5.049h4.06v5h-4.06l-0.049,59.185l4.109,0.049V192.103z"/>
				</g>
			</g>
			<g>
				<path style="fill:#EBEBEB;" d="M432.175,115.136h12.483c0,0-1.023,7.163-10.641,9.209L432.175,115.136z"/>
				<path style="fill:#EBEBEB;" d="M432.175,134.147h12.483c0,0-1.023,7.163-10.641,9.209L432.175,134.147z"/>
				<path style="fill:#EBEBEB;" d="M432.175,153.157h12.483c0,0-1.023,7.163-10.641,9.209L432.175,153.157z"/>
				<path style="fill:#EBEBEB;" d="M432.175,115.136h12.483c0,0-1.023,7.163-10.641,9.209L432.175,115.136z"/>
				<path style="fill:#EBEBEB;" d="M432.175,134.147h12.483c0,0-1.023,7.163-10.641,9.209L432.175,134.147z"/>
				<path style="fill:#EBEBEB;" d="M432.175,153.157h12.483c0,0-1.023,7.163-10.641,9.209L432.175,153.157z"/>
			</g>
			<path style="fill:#E0E0E0;" d="M436.123,111.905v61.299c0,2.142-1.738,3.88-3.88,3.88h-23.278c-2.142,0-3.88-1.738-3.88-3.88
				v-61.299c0-2.142,1.738-3.88,3.88-3.88h23.278C434.385,108.025,436.123,109.763,436.123,111.905z"/>
			<path style="fill:#EBEBEB;" d="M422.932,111.905v61.299c0,2.142-1.738,3.88-3.88,3.88h-10.087c-2.142,0-3.88-1.738-3.88-3.88
				v-61.299c0-2.142,1.738-3.88,3.88-3.88h10.087C421.194,108.025,422.932,109.763,422.932,111.905z"/>
			<g>
				<path style="fill:#E0E0E0;" d="M385.687,136.735v42.677c0,2.141,1.738,3.88,3.88,3.88h24.054c2.142,0,3.88-1.738,3.88-3.88
					v-42.677c0-2.141-1.738-3.88-3.88-3.88h-24.054C387.425,132.855,385.687,134.593,385.687,136.735z"/>
				<path style="fill:#EBEBEB;" d="M385.687,136.735v42.677c0,2.141,1.738,3.88,3.88,3.88h20.174c2.142,0,3.88-1.738,3.88-3.88
					v-42.677c0-2.141-1.738-3.88-3.88-3.88h-20.174C387.425,132.855,385.687,134.593,385.687,136.735z"/>
				<circle style="fill:#F5F5F5;" cx="400.182" cy="149.108" r="8.902"/>
				<path style="fill:#E0E0E0;" d="M391.28,169.649c0,4.917,3.986,8.902,8.902,8.902c4.917,0,8.902-3.985,8.902-8.902
					s-3.986-8.902-8.902-8.902C395.266,160.746,391.28,164.732,391.28,169.649z"/>
				<g>
					<path style="fill:#F5F5F5;" d="M399.264,164.686c0,0.636,0.516,1.152,1.152,1.152c0.636,0,1.152-0.516,1.152-1.152
						c0-0.636-0.516-1.152-1.152-1.152C399.78,163.534,399.264,164.05,399.264,164.686z"/>
					<path style="fill:#F5F5F5;" d="M400.891,166.502l0.569,0.756c0.351,0.571,0.865,1.024,1.477,1.3l1.338,0.604l-0.213,0.486
						l-1.694-0.413c-0.525-0.128-1.012-0.381-1.418-0.738l0,0l-0.314,2.818l-0.515,0.939c-0.568,1.035-1.303,1.97-2.175,2.766
						l-0.476,0.435l0.154,1.074l-1.228-1.381l0.267-0.249c1.124-1.047,2.011-2.323,2.6-3.742l0,0l0.714-5.065L400.891,166.502z"/>
					<polygon style="fill:#F5F5F5;" points="401.001,171.618 400.336,172.743 403.508,176.018 404.275,174.636 403.405,174.943 
											"/>
					<path style="fill:#F5F5F5;" d="M399.628,166.348l-0.365,1.688l0,0c-0.91,0.236-1.754,0.677-2.466,1.291l-0.401,0.346
						l-0.307-0.332l1.248-1.318c0.346-0.365,0.735-0.686,1.16-0.956L399.628,166.348z"/>
				</g>
				<g>
					<circle style="fill:#E0E0E0;" cx="400.182" cy="143.675" r="1.152"/>
					<path style="fill:#E0E0E0;" d="M399.111,146.607c-0.666,0.566-1.185,1.284-1.514,2.093l-0.19,0.469h-0.409l0.246-1.139
						c0.133-0.617,0.374-1.207,0.71-1.742l0.445-0.708c0.229-0.365,0.629-0.586,1.06-0.586h0.642h0.162h0.643
						c0.43,0,0.831,0.221,1.06,0.586l0.445,0.708c0.336,0.535,0.577,1.125,0.71,1.742l0.246,1.138h-0.409l-0.19-0.468
						c-0.329-0.81-0.848-1.528-1.514-2.094l0,0l0.008,1.983l1.085,7.151l0.804,0.382h-1.484l-1.484-5.337l-1.484,5.337h-1.484
						l0.804-0.382l1.092-7.151V146.607L399.111,146.607z"/>
				</g>
			</g>
		</g>
	</g>
</g>
<g id="Background_Simple" style="display:none;">
	<g style="display:inline;">
		<path style="fill:#407BFF;" d="M229.295,73.746c7.321-4.384,15.364-7.322,23.857-7.801c26.091-1.47,47.981,20.316,59.764,43.64
			c11.784,23.325,17.349,49.67,31.394,71.707c10.44,16.38,25.058,29.574,38.184,43.893c16.283,17.763,32.531,40.159,28.266,65.567
			c-3.97,23.654-21.732,43.677-42.178,55.124c-25.554,14.306-55.427,18.185-84.412,22.378
			c-41.097,5.945-82.519,13.066-123.907,9.697c-25.041-2.038-51.483-8.934-67.943-27.914
			c-13.568-15.646-18.257-37.332-17.917-58.038c0.537-32.705,14.148-63.102,33.879-89.022
			c22.302-29.296,52.594-51.248,75.672-79.857c9.715-12.044,18.113-25.204,28.951-36.248
			C217.785,81.897,223.298,77.337,229.295,73.746z"/>
		<path style="opacity:0.9;fill:#FFFFFF;" d="M229.295,73.746c7.321-4.384,15.364-7.322,23.857-7.801
			c26.091-1.47,47.981,20.316,59.764,43.64c11.784,23.325,17.349,49.67,31.394,71.707c10.44,16.38,25.058,29.574,38.184,43.893
			c16.283,17.763,32.531,40.159,28.266,65.567c-3.97,23.654-21.732,43.677-42.178,55.124
			c-25.554,14.306-55.427,18.185-84.412,22.378c-41.097,5.945-82.519,13.066-123.907,9.697
			c-25.041-2.038-51.483-8.934-67.943-27.914c-13.568-15.646-18.257-37.332-17.917-58.038c0.537-32.705,14.148-63.102,33.879-89.022
			c22.302-29.296,52.594-51.248,75.672-79.857c9.715-12.044,18.113-25.204,28.951-36.248
			C217.785,81.897,223.298,77.337,229.295,73.746z"/>
	</g>
</g>
<g id="Shadow_1_">
	<ellipse id="_x3C_Path_x3E__359_" style="fill:#F5F5F5;" cx="250" cy="416.238" rx="193.889" ry="11.323"/>
</g>
<g id="Device">
	<g>
		<path style="fill:#263238;" d="M304.034,418.623H147.969c-5.745,0-10.402-4.657-10.402-10.402V110.9
			c0-5.745,4.657-10.402,10.402-10.402h156.065c5.745,0,10.403,4.657,10.403,10.402v297.32
			C314.437,413.965,309.78,418.623,304.034,418.623z"/>
		<path style="opacity:0.2;fill:#FFFFFF;" d="M304.034,418.623H147.969c-5.745,0-10.402-4.657-10.402-10.402V110.9
			c0-5.745,4.657-10.402,10.402-10.402h156.065c5.745,0,10.403,4.657,10.403,10.402v297.32
			C314.437,413.965,309.78,418.623,304.034,418.623z"/>
		<path style="fill:#407BFF;" d="M308.468,111.155v296.241c0,2.437-1.958,4.329-4.395,4.329H147.462
			c-2.24,0-3.926-1.734-3.926-3.973V110.799c0-1.94,1.424-3.636,3.364-3.636h39.153c1.106,0,2.108,0.722,2.521,1.762l1.621,3.992
			c0.412,1.031,1.415,1.743,2.521,1.743h66.657c1.106,0,2.108-0.684,2.521-1.715l1.621-4.011c0.412-1.04,1.415-1.771,2.521-1.771
			h38.59C306.762,107.163,308.468,109.019,308.468,111.155z"/>
		<rect x="143.536" y="125.671" style="opacity:0.6;fill:#FFFFFF;enable-background:new    ;" width="164.932" height="254.193"/>
		<g>
			<g>
				
					<rect x="161.711" y="116.385" transform="matrix(-1 -1.224647e-16 1.224647e-16 -1 325.4601 235.4869)" style="opacity:0.6;fill:#FFFFFF;enable-background:new    ;" width="2.037" height="2.716"/>
				
					<rect x="158.391" y="115.479" transform="matrix(-1 -1.224647e-16 1.224647e-16 -1 318.8199 234.5809)" style="opacity:0.6;fill:#FFFFFF;enable-background:new    ;" width="2.037" height="3.622"/>
				
					<rect x="155.071" y="114.574" transform="matrix(-1 -1.224647e-16 1.224647e-16 -1 312.1798 233.6749)" style="opacity:0.6;fill:#FFFFFF;enable-background:new    ;" width="2.037" height="4.528"/>
				
					<rect x="151.751" y="113.667" transform="matrix(-1 -1.224647e-16 1.224647e-16 -1 305.5396 232.7688)" style="opacity:0.6;fill:#FFFFFF;enable-background:new    ;" width="2.037" height="5.434"/>
			</g>
			<g>
				<rect x="288.594" y="115.394" style="opacity:0.6;fill:#FFFFFF;enable-background:new    ;" width="1.207" height="2.716"/>
				
					<rect x="290.632" y="114.403" transform="matrix(-1 -1.224647e-16 1.224647e-16 -1 590.8843 233.5046)" style="opacity:0.6;fill:#FFFFFF;enable-background:new    ;" width="9.621" height="4.698"/>
			</g>
		</g>
		<g>
			<path style="opacity:0.6;fill:#407BFF;" d="M241.426,211.305h-30.848c-3.015,0-5.46-2.444-5.46-5.46v-30.848
				c0-3.015,2.444-5.46,5.46-5.46h30.848c3.015,0,5.46,2.444,5.46,5.46v30.848C246.885,208.861,244.441,211.305,241.426,211.305z"/>
			<path style="opacity:0.6;fill:#407BFF;" d="M191.426,211.305h-30.848c-3.015,0-5.46-2.444-5.46-5.46v-30.848
				c0-3.015,2.444-5.46,5.46-5.46h30.848c3.015,0,5.46,2.444,5.46,5.46v30.848C196.885,208.861,194.441,211.305,191.426,211.305z"/>
			<g>
				<path style="opacity:0.4;fill:#FFFFFF;enable-background:new    ;" d="M185.12,202.818h-17.987
					c-4.874,0-8.825-3.951-8.825-8.825l0,0c0-4.874,3.951-8.825,8.825-8.825h17.987c4.874,0,8.825,3.951,8.825,8.825l0,0
					C193.945,198.867,189.994,202.818,185.12,202.818z"/>
				<g>
					<g>
						<path style="opacity:0.4;fill:#FFFFFF;enable-background:new    ;" d="M185.629,193.992c0,0.667-0.54,1.207-1.207,1.207
							c-0.667,0-1.207-0.54-1.207-1.207c0-0.667,0.54-1.207,1.207-1.207C185.089,192.785,185.629,193.326,185.629,193.992z"/>
						<path style="opacity:0.4;fill:#FFFFFF;enable-background:new    ;" d="M190.417,193.992c0,0.667-0.54,1.207-1.207,1.207
							c-0.667,0-1.207-0.54-1.207-1.207c0-0.667,0.54-1.207,1.207-1.207C189.876,192.785,190.417,193.326,190.417,193.992z"/>
						<path style="opacity:0.4;fill:#FFFFFF;enable-background:new    ;" d="M186.816,192.806c-0.667,0-1.207-0.541-1.207-1.207
							c0-0.667,0.54-1.207,1.207-1.207c0.667,0,1.207,0.54,1.207,1.207C188.023,192.266,187.483,192.806,186.816,192.806z"/>
						<path style="opacity:0.4;fill:#FFFFFF;enable-background:new    ;" d="M186.816,197.593c-0.667,0-1.207-0.54-1.207-1.207
							c0-0.667,0.54-1.207,1.207-1.207c0.667,0,1.207,0.541,1.207,1.207C188.023,197.053,187.483,197.593,186.816,197.593z"/>
					</g>
					<polygon style="opacity:0.4;fill:#FFFFFF;enable-background:new    ;" points="169.038,192.785 166.644,192.785 
						166.644,190.392 164.229,190.392 164.229,192.785 161.836,192.785 161.836,195.2 164.229,195.2 164.229,197.593 
						166.644,197.593 166.644,195.2 169.038,195.2 					"/>
				</g>
				<g>
					<rect x="173.67" y="194.551" style="opacity:0.4;fill:#FFFFFF;enable-background:new    ;" width="1.912" height="0.791"/>
					<rect x="176.67" y="194.551" style="opacity:0.4;fill:#FFFFFF;enable-background:new    ;" width="1.912" height="0.791"/>
				</g>
				<g style="opacity:0.4;enable-background:new    ;">
					<rect x="175.626" y="174.617" style="fill:#FFFFFF;" width="1" height="9.495"/>
				</g>
			</g>
			<path style="opacity:0.6;fill:#407BFF;" d="M291.426,211.305h-30.848c-3.015,0-5.46-2.444-5.46-5.46v-30.848
				c0-3.015,2.444-5.46,5.46-5.46h30.848c3.015,0,5.46,2.444,5.46,5.46v30.848C296.885,208.861,294.441,211.305,291.426,211.305z"/>
			<g>
				<path style="fill:#407BFF;" d="M235.718,177.969h-10.054c-3.029,0-5.485,2.456-5.485,5.485v3.578
					c0,3.029,2.456,5.485,5.485,5.485h5.486l1.934,3.869v-3.869h2.634c3.029,0,5.485-2.456,5.485-5.485v-3.578
					C241.203,180.425,238.747,177.969,235.718,177.969z"/>
				<path style="opacity:0.4;fill:#FFFFFF;enable-background:new    ;" d="M235.718,177.969h-10.054
					c-3.029,0-5.485,2.456-5.485,5.485v3.578c0,3.029,2.456,5.485,5.485,5.485h5.486l1.934,3.869v-3.869h2.634
					c3.029,0,5.485-2.456,5.485-5.485v-3.578C241.203,180.425,238.747,177.969,235.718,177.969z"/>
			</g>
			<g>
				<path style="fill:#407BFF;" d="M215.153,187.178h10.054c3.029,0,5.485,2.456,5.485,5.485v3.578c0,3.029-2.455,5.485-5.485,5.485
					h-5.486l-1.934,3.869v-3.869h-2.634c-3.029,0-5.485-2.456-5.485-5.485v-3.578C209.668,189.633,212.123,187.178,215.153,187.178z
					"/>
				<path style="opacity:0.6;fill:#FFFFFF;enable-background:new    ;" d="M215.153,187.178h10.054c3.029,0,5.485,2.456,5.485,5.485
					v3.578c0,3.029-2.455,5.485-5.485,5.485h-5.486l-1.934,3.869v-3.869h-2.634c-3.029,0-5.485-2.456-5.485-5.485v-3.578
					C209.668,189.633,212.123,187.178,215.153,187.178z"/>
			</g>
			<path style="opacity:0.4;fill:#FFFFFF;enable-background:new    ;" d="M289.852,200.013v-14.579v-7.46l-1.98,0.93l-8.8,4.15
				l-7.71-4.04l-1.98-1.04v8.15v11.234c-0.72-0.349-1.588-0.553-2.523-0.553c-2.485,0-4.5,1.439-4.5,3.214
				c0,1.775,2.015,3.214,4.5,3.214c2.483,0,4.496-1.436,4.499-3.209h0.004v-12.98l8.25,3.83l8.26-4.39v10.872
				c-0.719-0.348-1.586-0.551-2.519-0.551c-2.485,0-4.5,1.439-4.5,3.214c0,1.775,2.015,3.214,4.5,3.214c2.485,0,4.5-1.439,4.5-3.214
				C289.853,200.016,289.852,200.015,289.852,200.013z"/>
			<path style="opacity:0.6;fill:#407BFF;" d="M241.426,261.305h-30.848c-3.015,0-5.46-2.444-5.46-5.46v-30.848
				c0-3.015,2.444-5.46,5.46-5.46h30.848c3.015,0,5.46,2.444,5.46,5.46v30.848C246.885,258.861,244.441,261.305,241.426,261.305z"/>
			<path style="opacity:0.6;fill:#407BFF;" d="M191.426,261.305h-30.848c-3.015,0-5.46-2.444-5.46-5.46v-30.848
				c0-3.015,2.444-5.46,5.46-5.46h30.848c3.015,0,5.46,2.444,5.46,5.46v30.848C196.885,258.861,194.441,261.305,191.426,261.305z"/>
			<path style="opacity:0.6;fill:#407BFF;" d="M291.426,261.305h-30.848c-3.015,0-5.46-2.444-5.46-5.46v-30.848
				c0-3.015,2.444-5.46,5.46-5.46h30.848c3.015,0,5.46,2.444,5.46,5.46v30.848C296.885,258.861,294.441,261.305,291.426,261.305z"/>
			<g>
				<path style="opacity:0.4;fill:#FFFFFF;enable-background:new    ;" d="M235.901,248.893h-19.385
					c-1.712,0-3.099-1.387-3.099-3.099v-11.077c0-1.712,1.387-3.099,3.099-3.099h19.385c1.712,0,3.099,1.387,3.099,3.099v11.077
					C239,247.505,237.613,248.893,235.901,248.893z"/>
				<polygon style="opacity:0.4;fill:#FFFFFF;enable-background:new    ;" points="220.571,236.246 220.571,244.265 
					231.846,240.256 				"/>
			</g>
			<g style="opacity:0.4;enable-background:new    ;">
				<path style="fill:#FFFFFF;" d="M168.297,248.035c-0.983,0-1.78,0.797-1.78,1.78s0.797,1.78,1.78,1.78
					c0.983,0,1.78-0.797,1.78-1.78S169.28,248.035,168.297,248.035z"/>
				<path style="fill:#FFFFFF;" d="M183.417,248.035c-0.983,0-1.78,0.797-1.78,1.78s0.797,1.78,1.78,1.78
					c0.983,0,1.78-0.797,1.78-1.78S184.401,248.035,183.417,248.035z"/>
				<path style="fill:#FFFFFF;" d="M185.444,239.34l0.948-5.566c0.049-0.29-0.032-0.588-0.222-0.813s-0.47-0.355-0.764-0.355
					h-18.375l-3.631-0.966c-0.536-0.141-1.082,0.176-1.224,0.709c-0.142,0.534,0.175,1.082,0.709,1.224l3.137,0.835l1.892,11.103
					c0.082,0.48,0.499,0.832,0.986,0.832h14.506c0.487,0,0.904-0.352,0.986-0.832l0.95-5.572c0.075-0.14,0.129-0.293,0.129-0.464
					C185.471,239.427,185.45,239.386,185.444,239.34z M183.563,238.474h-3.247l0.196-3.868h3.711L183.563,238.474z M174.676,238.474
					l-0.195-3.868h4.028l-0.196,3.868H174.676z M178.212,240.474l-0.195,3.868h-3.044l-0.195-3.868H178.212z M172.478,234.606
					l0.195,3.868h-3.929l-0.659-3.868H172.478z M169.086,240.474h3.689l0.195,3.868h-3.225L169.086,240.474z M180.019,244.342
					l0.195-3.868h3.008l-0.659,3.868H180.019z"/>
			</g>
			<g style="opacity:0.4;enable-background:new    ;">
				<path style="fill:#FFFFFF;" d="M272.865,233.026h-2.399v-2.399c0-0.552-0.448-1-1-1c-0.552,0-1,0.448-1,1v2.399h-2.399
					c-0.552,0-1,0.448-1,1c0,0.552,0.448,1,1,1h2.399v2.399c0,0.552,0.448,1,1,1c0.552,0,1-0.448,1-1v-2.399h2.399
					c0.552,0,1-0.448,1-1C273.865,233.474,273.418,233.026,272.865,233.026z"/>
				<path style="fill:#FFFFFF;" d="M286.118,233.026h-6.798c-0.552,0-1,0.448-1,1c0,0.552,0.448,1,1,1h6.798c0.552,0,1-0.448,1-1
					C287.118,233.474,286.67,233.026,286.118,233.026z"/>
				<path style="fill:#FFFFFF;" d="M285.829,243.757c-0.391-0.391-1.023-0.391-1.414,0l-1.697,1.697l-1.697-1.697
					c-0.391-0.391-1.023-0.391-1.414,0c-0.391,0.391-0.391,1.024,0,1.414l1.697,1.697l-1.697,1.697
					c-0.391,0.391-0.391,1.023,0,1.414c0.195,0.195,0.451,0.293,0.707,0.293c0.256,0,0.512-0.098,0.707-0.293l1.697-1.697
					l1.697,1.697c0.195,0.195,0.451,0.293,0.707,0.293c0.256,0,0.512-0.098,0.707-0.293c0.391-0.391,0.391-1.023,0-1.414
					l-1.697-1.697l1.697-1.697C286.22,244.781,286.22,244.148,285.829,243.757z"/>
				<path style="fill:#FFFFFF;" d="M272.365,243.868h-5.798c-0.552,0-1,0.448-1,1c0,0.552,0.448,1,1,1h5.798c0.552,0,1-0.448,1-1
					C273.365,244.316,272.918,243.868,272.365,243.868z"/>
				<path style="fill:#FFFFFF;" d="M272.365,247.868h-5.798c-0.552,0-1,0.447-1,1c0,0.553,0.448,1,1,1h5.798c0.552,0,1-0.447,1-1
					C273.365,248.315,272.918,247.868,272.365,247.868z"/>
			</g>
			<path style="opacity:0.6;fill:#407BFF;" d="M241.426,311.305h-30.848c-3.015,0-5.46-2.444-5.46-5.46v-30.848
				c0-3.015,2.444-5.46,5.46-5.46h30.848c3.015,0,5.46,2.444,5.46,5.46v30.848C246.885,308.861,244.441,311.305,241.426,311.305z"/>
			<path style="opacity:0.6;fill:#407BFF;" d="M191.426,311.305h-30.848c-3.015,0-5.46-2.444-5.46-5.46v-30.848
				c0-3.015,2.444-5.46,5.46-5.46h30.848c3.015,0,5.46,2.444,5.46,5.46v30.848C196.885,308.861,194.441,311.305,191.426,311.305z"/>
			<path style="opacity:0.6;fill:#407BFF;" d="M291.426,311.305h-30.848c-3.015,0-5.46-2.444-5.46-5.46v-30.848
				c0-3.015,2.444-5.46,5.46-5.46h30.848c3.015,0,5.46,2.444,5.46,5.46v30.848C296.885,308.861,294.441,311.305,291.426,311.305z"/>
			<g>
				<g>
					<rect x="165.513" y="277.318" style="opacity:0.4;fill:#FFFFFF;enable-background:new    ;" width="17.705" height="24.133"/>
					<g>
						<path style="opacity:0.4;fill:#FFFFFF;enable-background:new    ;" d="M179.784,280.765h-10.837
							c-0.473,0-0.857,0.384-0.857,0.857v0c0,0.473,0.384,0.857,0.857,0.857h10.837c0.473,0,0.857-0.384,0.857-0.857v0
							C180.641,281.149,180.257,280.765,179.784,280.765z"/>
						<path style="opacity:0.4;fill:#FFFFFF;enable-background:new    ;" d="M179.784,284.646h-10.837
							c-0.473,0-0.857,0.384-0.857,0.857l0,0c0,0.473,0.384,0.857,0.857,0.857h10.837c0.473,0,0.857-0.384,0.857-0.857l0,0
							C180.641,285.03,180.257,284.646,179.784,284.646z"/>
						<path style="opacity:0.4;fill:#FFFFFF;enable-background:new    ;" d="M179.784,288.527h-10.837
							c-0.473,0-0.857,0.384-0.857,0.857v0c0,0.473,0.384,0.857,0.857,0.857h10.837c0.473,0,0.857-0.384,0.857-0.857v0
							C180.641,288.911,180.257,288.527,179.784,288.527z"/>
						<path style="opacity:0.4;fill:#FFFFFF;enable-background:new    ;" d="M179.784,292.408h-10.837
							c-0.473,0-0.857,0.384-0.857,0.857l0,0c0,0.473,0.384,0.857,0.857,0.857h10.837c0.473,0,0.857-0.384,0.857-0.857l0,0
							C180.641,292.792,180.257,292.408,179.784,292.408z"/>
						<path style="opacity:0.4;fill:#FFFFFF;enable-background:new    ;" d="M175.784,296.289h-6.837
							c-0.473,0-0.857,0.384-0.857,0.857v0c0,0.473,0.384,0.857,0.857,0.857h6.837c0.473,0,0.857-0.384,0.857-0.857v0
							C176.641,296.673,176.257,296.289,175.784,296.289z"/>
					</g>
				</g>
				<polygon style="opacity:0.6;fill:#FFFFFF;enable-background:new    ;" points="183.218,280.112 183.218,301.451 
					167.121,301.451 167.121,303.766 183.218,303.766 185.517,303.766 185.517,301.451 185.517,280.112 				"/>
			</g>
			<g>
				<path style="opacity:0.4;fill:#FFFFFF;enable-background:new    ;" d="M288.927,280.113v20.72h-25.84v-20.72h3.89v1.49
					c0,0.42,0.35,0.77,0.77,0.77s0.77-0.35,0.77-0.77v-1.49h2.59v1.49c0,0.42,0.35,0.77,0.77,0.77c0.42,0,0.77-0.35,0.77-0.77v-1.49
					h2.59v1.49c0,0.42,0.35,0.77,0.77,0.77c0.42,0,0.77-0.35,0.77-0.77v-1.49h2.59v1.49c0,0.42,0.34,0.77,0.77,0.77
					c0.42,0,0.76-0.35,0.76-0.77v-1.49h2.6v1.49c0,0.42,0.34,0.77,0.77,0.77c0.42,0,0.76-0.35,0.76-0.77v-1.49H288.927z"/>
				<path style="opacity:0.4;fill:#FFFFFF;enable-background:new    ;" d="M288.927,280.113v3.63h-25.84v-3.63h3.89v1.49
					c0,0.42,0.35,0.77,0.77,0.77s0.77-0.35,0.77-0.77v-1.49h2.59v1.49c0,0.42,0.35,0.77,0.77,0.77c0.42,0,0.77-0.35,0.77-0.77v-1.49
					h2.59v1.49c0,0.42,0.35,0.77,0.77,0.77c0.42,0,0.77-0.35,0.77-0.77v-1.49h2.59v1.49c0,0.42,0.34,0.77,0.77,0.77
					c0.42,0,0.76-0.35,0.76-0.77v-1.49h2.6v1.49c0,0.42,0.34,0.77,0.77,0.77c0.42,0,0.76-0.35,0.76-0.77v-1.49H288.927z"/>
				<g>
					<path style="opacity:0.4;fill:#FFFFFF;enable-background:new    ;" d="M267.749,282.37L267.749,282.37
						c-0.423,0-0.766-0.343-0.766-0.767v-2.543c0-0.423,0.343-0.766,0.766-0.766l0,0c0.423,0,0.767,0.343,0.767,0.766v2.543
						C268.515,282.027,268.172,282.37,267.749,282.37z"/>
					<path style="opacity:0.4;fill:#FFFFFF;enable-background:new    ;" d="M271.878,282.37L271.878,282.37
						c-0.423,0-0.767-0.343-0.767-0.767v-2.543c0-0.423,0.343-0.766,0.766-0.766h0c0.423,0,0.766,0.343,0.766,0.766v2.543
						C272.644,282.027,272.301,282.37,271.878,282.37z"/>
					<path style="opacity:0.4;fill:#FFFFFF;enable-background:new    ;" d="M276.007,282.37L276.007,282.37
						c-0.423,0-0.766-0.343-0.766-0.767v-2.543c0-0.423,0.343-0.766,0.766-0.766l0,0c0.423,0,0.767,0.343,0.767,0.766v2.543
						C276.773,282.027,276.43,282.37,276.007,282.37z"/>
					<path style="opacity:0.4;fill:#FFFFFF;enable-background:new    ;" d="M280.136,282.37L280.136,282.37
						c-0.423,0-0.767-0.343-0.767-0.767v-2.543c0-0.423,0.343-0.766,0.767-0.766l0,0c0.423,0,0.766,0.343,0.766,0.766v2.543
						C280.903,282.027,280.559,282.37,280.136,282.37z"/>
					<path style="opacity:0.4;fill:#FFFFFF;enable-background:new    ;" d="M284.265,282.37L284.265,282.37
						c-0.423,0-0.767-0.343-0.767-0.767v-2.543c0-0.423,0.343-0.766,0.767-0.766l0,0c0.423,0,0.767,0.343,0.767,0.766v2.543
						C285.032,282.027,284.689,282.37,284.265,282.37z"/>
				</g>
				<g>
					<rect x="267.365" y="286.567" style="opacity:0.4;fill:#FFFFFF;enable-background:new    ;" width="7.714" height="4.846"/>
					<rect x="276.935" y="286.567" style="opacity:0.4;fill:#FFFFFF;enable-background:new    ;" width="7.714" height="4.846"/>
					<rect x="267.365" y="292.567" style="opacity:0.4;fill:#FFFFFF;enable-background:new    ;" width="7.714" height="4.846"/>
					<rect x="276.935" y="292.567" style="opacity:0.4;fill:#FFFFFF;enable-background:new    ;" width="7.714" height="4.846"/>
				</g>
			</g>
		</g>
		<g>
			<path style="opacity:0.6;fill:#FFFFFF;enable-background:new    ;" d="M225.975,107.553c0,1.25-1.013,2.264-2.264,2.264
				c-1.25,0-2.264-1.014-2.264-2.264c0-1.25,1.013-2.264,2.264-2.264C224.961,105.289,225.975,106.303,225.975,107.553z"/>
			<path style="opacity:0.6;fill:#FFFFFF;enable-background:new    ;" d="M230.556,107.553c0,0.801-0.649,1.45-1.45,1.45
				c-0.801,0-1.45-0.649-1.45-1.45c0-0.801,0.649-1.45,1.45-1.45C229.907,106.103,230.556,106.752,230.556,107.553z"/>
		</g>
		<path style="opacity:0.4;fill:#FFFFFF;enable-background:new    ;" d="M289.207,154.806h-123.22c-4.241,0-7.679-3.438-7.679-7.679
			l0,0c0-4.241,3.438-7.679,7.679-7.679h123.22c4.241,0,7.679,3.438,7.679,7.679l0,0
			C296.885,151.368,293.448,154.806,289.207,154.806z"/>
		<path style="opacity:0.4;fill:#FFFFFF;enable-background:new    ;" d="M236.116,292.713v-3.243l-1.67-0.157
			c-0.225-1.087-0.656-2.098-1.245-2.995l1.073-1.296l-2.293-2.293l-1.296,1.073c-0.897-0.589-1.908-1.02-2.995-1.245l-0.157-1.67
			h-3.243l-0.157,1.67c-1.087,0.225-2.098,0.656-2.995,1.245l-1.296-1.073l-2.293,2.293l1.072,1.296
			c-0.589,0.898-1.02,1.908-1.245,2.995l-1.67,0.157v3.243l1.67,0.157c0.225,1.087,0.656,2.098,1.245,2.995l-1.072,1.296
			l2.293,2.293l1.296-1.072c0.898,0.589,1.908,1.02,2.995,1.245l0.157,1.67h3.243l0.157-1.67c1.087-0.225,2.098-0.656,2.995-1.245
			l1.296,1.072l2.293-2.293l-1.073-1.296c0.589-0.898,1.02-1.908,1.245-2.995L236.116,292.713z M225.911,295.481
			c-2.425,0-4.39-1.966-4.39-4.39c0-2.425,1.965-4.39,4.39-4.39c2.424,0,4.39,1.965,4.39,4.39
			C230.3,293.516,228.335,295.481,225.911,295.481z"/>
		<g>
			<path style="fill:#FFFFFF;" d="M215.112,327.534c0,1.366-1.108,2.474-2.474,2.474c-1.366,0-2.474-1.108-2.474-2.474
				c0-1.366,1.108-2.474,2.474-2.474C214.005,325.06,215.112,326.168,215.112,327.534z"/>
			<path style="fill:#FFFFFF;" d="M229.137,327.534c0,1.366-1.108,2.474-2.474,2.474c-1.366,0-2.474-1.108-2.474-2.474
				c0-1.366,1.108-2.474,2.474-2.474C228.03,325.06,229.137,326.168,229.137,327.534z"/>
			<path style="fill:#FFFFFF;" d="M243.162,327.534c0,1.366-1.108,2.474-2.474,2.474c-1.367,0-2.474-1.108-2.474-2.474
				c0-1.366,1.108-2.474,2.474-2.474C242.055,325.06,243.162,326.168,243.162,327.534z"/>
		</g>
	</g>
</g>
<g id="Character_3">
	<g id="_x3C_Group_x3E__28_">
		<path style="fill:#263238;" d="M356.762,161.633c-14.487,5.678-24.444,68.446-25.633,94.224h3.138c0,0,3.753-40.201,9.832-62.59
			C350.178,170.877,356.762,161.633,356.762,161.633z"/>
		<g>
			<path style="fill:#EBB376;" d="M406.356,164.931c0,0,4.932-0.089,5.104,0.781c0.171,0.869-0.151,8.084-0.807,9.099
				c-0.656,1.015-2.455,2.478-2.455,2.478l0.478,4.716l-6.084,3.083l0.477-5.685c0,0-3.023-2.952-2.138-6.697
				C401.815,168.96,406.356,164.931,406.356,164.931z"/>
			<path style="opacity:0.2;enable-background:new    ;" d="M406.356,164.931c0,0,4.932-0.089,5.104,0.781
				c0.171,0.869-0.151,8.084-0.807,9.099c-0.656,1.015-2.455,2.478-2.455,2.478l0.478,4.716l-6.084,3.083l0.477-5.685
				c0,0-3.023-2.952-2.138-6.697C401.815,168.96,406.356,164.931,406.356,164.931z"/>
		</g>
		<path style="fill:#407BFF;" d="M392.643,169.039c2.885,2.02,6.312,17.459,7.63,18.25s1.979-5.087,1.979-5.087l6.857-1.253
			c0,0,1.885,13.452-1.78,16.154c-2.901,2.138-8.437,2.44-18.55-8.11C379.482,179.294,392.643,169.039,392.643,169.039z"/>
		<path style="opacity:0.3;fill:#FFFFFF;enable-background:new    ;" d="M392.643,169.039c2.885,2.02,6.312,17.459,7.63,18.25
			s1.979-5.087,1.979-5.087l6.857-1.253c0,0,1.885,13.452-1.78,16.154c-2.901,2.138-8.437,2.44-18.55-8.11
			C379.482,179.294,392.643,169.039,392.643,169.039z"/>
		<g>
			<path style="fill:#407BFF;" d="M349.437,163.077c0,0,15.926-6.696,43.206,5.963c0,0-6.666,34.831-6.071,52.094l-41.651-2.571
				C344.921,218.562,342.934,180.856,349.437,163.077z"/>
			<path style="opacity:0.6;fill:#FFFFFF;enable-background:new    ;" d="M349.437,163.077c0,0,15.926-6.696,43.206,5.963
				c0,0-6.666,34.831-6.071,52.094l-41.651-2.571C344.921,218.562,342.934,180.856,349.437,163.077z"/>
		</g>
		<polygon style="fill:#EBB376;" points="338.442,389.534 343.691,395.603 356.545,384.064 351.296,377.995 		"/>
		<polygon style="opacity:0.2;enable-background:new    ;" points="351.296,377.995 356.545,384.064 349.91,390.011 
			344.661,383.942 		"/>
		<path style="fill:#263238;" d="M386.611,244.243l-1.435-22.546l-40.514,1.574c0,0-3.094,18.586,1.106,36.99l10.952-1.765
			c6.71,18.643,22.943,65.797,19.175,75.634c-4.721,12.326-29.602,44.57-29.602,44.57l10.252,10.232
			c0,0,43.914-38.958,46.639-64.359C405.234,305.46,392.666,260.64,386.611,244.243z"/>
		<path style="fill:#263238;" d="M346.06,394.307l-6.857-6.419c-0.232-0.215-0.583-0.241-0.844-0.063l-5.818,3.984
			c-0.516,0.361-0.643,1.072-0.282,1.589c0.048,0.069,0.104,0.133,0.166,0.19c2.252,2.041,3.996,3.417,6.782,6.025
			c1.716,1.607,6.725,6.632,9.094,8.851c2.37,2.218,4.87,0.167,4.102-0.956c-3.464-5.021-5.508-9.4-5.731-11.954
			C346.636,395.075,346.417,394.629,346.06,394.307z"/>
		<path style="fill:#407BFF;" d="M345.715,395.453c-0.04-0.065-0.038-0.147,0.007-0.209c0.04-0.061,0.115-0.089,0.186-0.069
			c0.322,0.059,3.194,0.646,3.516,1.554c0.08,0.203,0.033,0.433-0.12,0.589c-0.217,0.307-0.577,0.48-0.952,0.456
			c-0.521-0.081-0.998-0.338-1.353-0.728C346.514,396.564,346.083,396.03,345.715,395.453z M346.278,395.629
			c0.45,0.839,1.203,1.476,2.105,1.782c0.249,0.005,0.484-0.112,0.63-0.313c0.094-0.115,0.098-0.205,0.062-0.239
			c-0.026-0.078-0.074-0.146-0.139-0.197C348.124,396.151,347.222,395.801,346.278,395.629z"/>
		<path style="fill:#407BFF;" d="M345.653,395.448c-0.016-0.065,0.003-0.134,0.05-0.183c0.081-0.072,1.737-1.567,2.887-1.487
			c0.283,0.009,0.549,0.14,0.729,0.359c0.21,0.195,0.252,0.512,0.102,0.755c-0.443,0.703-2.733,0.89-3.611,0.662l-0.065-0.06
			C345.71,395.488,345.678,395.473,345.653,395.448z M348.614,394.098c-0.872,0.135-1.682,0.533-2.321,1.141
			c0.992,0.106,2.59-0.162,2.861-0.595c0.026-0.042,0.106-0.157-0.066-0.318l-0.065-0.061
			C348.912,394.162,348.766,394.102,348.614,394.098z"/>
		<g>
			<polygon style="fill:#407BFF;" points="354.44,392.912 343.636,379.293 347.274,376.177 358.728,390.115 			"/>
			<polygon style="opacity:0.6;fill:#FFFFFF;enable-background:new    ;" points="354.44,392.912 343.636,379.293 347.274,376.177 
				358.728,390.115 			"/>
		</g>
		<polygon style="fill:#EBB376;" points="363.024,410.715 370.754,410.715 371.394,392.804 363.653,392.804 		"/>
		<path style="fill:#263238;" d="M371.826,409.82h-9.393c-0.317,0.002-0.59,0.222-0.659,0.531l-1.525,6.885
			c-0.13,0.616,0.263,1.222,0.88,1.352c0.083,0.018,0.167,0.026,0.251,0.025c3.039-0.049,5.252-0.236,9.068-0.236
			c2.351,0,9.442,0.246,12.688,0.246c3.246,0,3.669-3.207,2.341-3.501c-5.96-1.298-10.445-3.098-12.354-4.81
			C372.771,409.987,372.306,409.811,371.826,409.82z"/>
		<path style="fill:#407BFF;" d="M372.358,410.892c-0.074-0.02-0.128-0.082-0.138-0.157c-0.012-0.072,0.023-0.144,0.088-0.177
			c0.275-0.177,2.774-1.711,3.629-1.269c0.197,0.093,0.32,0.294,0.315,0.512c0.052,0.372-0.094,0.745-0.384,0.984
			c-0.436,0.297-0.96,0.435-1.485,0.393C373.7,411.157,373.02,411.062,372.358,410.892z M372.889,410.636
			c0.902,0.305,1.887,0.256,2.754-0.138c0.185-0.166,0.277-0.412,0.246-0.659c-0.01-0.148-0.069-0.216-0.118-0.216
			c-0.072-0.039-0.154-0.056-0.236-0.049C374.593,409.756,373.695,410.116,372.889,410.636z"/>
		<path style="fill:#407BFF;" d="M372.308,410.931c-0.056-0.037-0.089-0.1-0.088-0.167c0.01-0.108,0.197-2.331,1.092-3.059
			c0.213-0.187,0.496-0.273,0.777-0.236c0.287-0.001,0.534,0.201,0.59,0.482c0.157,0.816-1.387,2.518-2.184,2.951h-0.088
			C372.378,410.922,372.344,410.932,372.308,410.931z M373.548,407.922c-0.544,0.695-0.863,1.539-0.915,2.42
			c0.797-0.6,1.78-1.889,1.682-2.39c-0.01-0.049-0.03-0.187-0.266-0.187h-0.089C373.809,407.765,373.662,407.821,373.548,407.922z"
			/>
		<polygon style="opacity:0.2;enable-background:new    ;" points="363.653,392.814 371.394,392.814 371.059,402.05 363.319,402.05 
					"/>
		<path style="fill:#EBB376;" d="M377.929,166.708c-2-1.612-2.657-3.397-2.531-5.214c0.088-1.241,0.541-2.491,1.164-3.712
			c0.32-0.645,0.698-1.276,1.091-1.89l-7.312-12.169c-0.751,5.725-2.982,15.903-7.936,18.228
			C368.639,170.428,377.929,166.708,377.929,166.708z"/>
		<path style="opacity:0.2;enable-background:new    ;" d="M370.722,149.692c-2.199,6.498,2.277,10.395,4.675,11.802
			c0.088-1.241,0.541-2.49,1.164-3.712L370.722,149.692z"/>
		<g>
			<path style="fill:#263238;" d="M394.732,133.631c0,0-0.212,10.775-6.481,13.854c-6.269,3.079-2.902-16.468-2.902-16.468
				L394.732,133.631z"/>
			<path style="fill:#EBB376;" d="M370.633,153.043c2.035,4.353,6.27,6.13,10.307,5.578c2.596-0.351,5.109-1.675,6.908-3.89
				c0.24-0.288,0.463-0.599,0.678-0.921c3.849-5.944,6.654-17.018,0.594-22.394c-4.295-3.864-10.921-3.518-14.787,0.786
				c-1.108,1.216-1.9,2.687-2.334,4.279C369.873,143.84,368.276,148.066,370.633,153.043z"/>
			<path style="fill:#263238;" d="M382.245,142.374c-0.247,0.568-0.069,1.171,0.322,1.308c0.391,0.137,0.864-0.236,1.074-0.82
				c0.211-0.584,0.06-1.175-0.322-1.308C382.938,141.42,382.459,141.781,382.245,142.374z"/>
			<path style="fill:#263238;" d="M388.891,144.723c-0.247,0.568-0.06,1.175,0.322,1.308c0.382,0.134,0.864-0.236,1.074-0.82
				s0.06-1.175-0.322-1.308C389.584,143.769,389.09,144.165,388.891,144.723z"/>
			<path style="fill:#D58745;" d="M386.677,144.266c0.064,2.046,0.411,4.072,1.031,6.023c-1.024,0.296-2.127,0.123-3.012-0.471
				L386.677,144.266z"/>
			<path style="fill:#263238;" d="M380.943,139.492c0.121,0.063,0.267,0.057,0.382-0.016c0.765-0.531,1.735-0.67,2.618-0.375
				c0.184,0.08,0.399-0.004,0.479-0.188c0.08-0.184-0.004-0.399-0.188-0.479c0,0-0.001,0-0.002-0.001
				c-1.107-0.401-2.34-0.241-3.307,0.43c-0.171,0.106-0.224,0.33-0.118,0.501c0.001,0.003,0.003,0.005,0.005,0.007
				C380.85,139.419,380.894,139.459,380.943,139.492z"/>
			<path style="fill:#263238;" d="M382.665,152.524L382.665,152.524c-1.799-0.345-3.317-1.545-4.067-3.216
				c-0.036-0.1,0.014-0.211,0.113-0.25c0.095-0.04,0.205,0.004,0.245,0.099c0.002,0.005,0.004,0.009,0.005,0.014
				c0.725,1.531,2.13,2.631,3.79,2.968c0.102,0.017,0.171,0.113,0.154,0.215c-0.001,0.007-0.003,0.014-0.005,0.02
				c-0.017,0.102-0.113,0.171-0.215,0.154C382.679,152.528,382.672,152.526,382.665,152.524z"/>
			<path style="fill:#263238;" d="M392.557,143.44c0.056,0.049,0.125,0.079,0.198,0.086c0.2-0.019,0.346-0.197,0.327-0.397
				c0-0.003,0-0.005-0.001-0.008c-0.106-1.176-0.777-2.228-1.8-2.819c-0.18-0.09-0.398-0.018-0.488,0.162l0,0.001
				c-0.085,0.181-0.013,0.396,0.163,0.489l0,0c0.794,0.49,1.31,1.326,1.391,2.255C392.38,143.314,392.457,143.398,392.557,143.44z"
				/>
			<path style="fill:#263238;" d="M380.48,129.346l-0.577,3.352c-1.23,0.246-2.229,1.25-2.123,2.671
				c0.226,3.033-2.585,6.787-5.177,7.841c0,0,0.289-1.198-0.788-1.217c-1.078-0.019-2.648,6.198-1.589,9.707
				c0,0-2.137-3.528-1.856-10.466c0.259-6.417,1.561-11.438,3.478-13.374L380.48,129.346z"/>
			<path style="fill:#EBB376;" d="M366.752,141.287c0.224,1.917,1.198,3.667,2.71,4.866c2.013,1.574,3.991,0.005,4.251-2.404
				c0.211-2.143-0.548-5.606-2.973-6.215C368.314,136.926,366.507,138.931,366.752,141.287z"/>
			<path style="fill:#263238;" d="M379.903,132.697c0,0,2.764,3.119,4.236,2.536c1.471-0.583,0.609-2.278,0.609-2.278
				s3.899,4.059,6.109,4.362c2.207,0.303,1.152-3.104,1.152-3.104s1.877,5.436,3.738,4.514c0.896-0.444,2.717-5.912-3.407-10.869
				c-6.124-4.957-13.791-4.763-16.362-2.815c0,0-4.618-0.552-6.224,3.997C367.66,134.967,379.903,132.697,379.903,132.697z"/>
		</g>
		<g>
			<path style="fill:#263238;" d="M396.636,170.259c-0.092,0.461,0.215,0.867,0.686,0.907l8.385,0.71
				c0.471,0.04,0.928-0.301,1.021-0.762l3.273-16.391c0.092-0.461-0.205-0.982-0.676-1.021l-8.385-0.709
				c-0.471-0.04-0.938,0.416-1.03,0.877L396.636,170.259z"/>
			<path style="opacity:0.3;fill:#FFFFFF;" d="M400.847,153.838l-3.311,16.549c-0.094,0.467,0.125,0.808,0.593,0.847l7.111,0.602
				c0.477,0.04,1.373-0.148,1.467-0.615l3.316-16.607c0.094-0.467-0.689-0.913-1.166-0.953l-7.111-0.602
				C401.278,153.02,400.941,153.371,400.847,153.838z"/>
		</g>
		<g>
			<path style="fill:#263238;" d="M344.661,220.246c-7.552,39.429,18,94.015,15.888,178.534h14.14c0,0,11.493-58.866,2.589-158.871
				l7.897-18.212L344.661,220.246z"/>
			<path style="opacity:0.1;fill:#FFFFFF;" d="M344.661,220.246c-7.552,39.429,18,94.015,15.888,178.534h14.14
				c0,0,11.493-58.866,2.589-158.871l7.897-18.212L344.661,220.246z"/>
		</g>
		<g>
			<polygon style="fill:#407BFF;" points="376.311,400.565 359.63,400.565 359.63,395.578 376.941,395.253 			"/>
			<polygon style="opacity:0.6;fill:#FFFFFF;enable-background:new    ;" points="376.311,400.565 359.63,400.565 359.63,395.578 
				376.941,395.253 			"/>
		</g>
		<polygon style="fill:#407BFF;" points="370.854,169.039 374.412,175.008 372.633,210.026 375.681,213.587 377.929,210.422 
			376.561,175.008 377.929,167.52 376.993,165.837 370.238,167.52 		"/>
		<g>
			<polygon style="fill:#263238;" points="344.921,218.562 386.572,221.134 385.784,226.428 344.153,223.266 			"/>
			<g>
				<path style="fill:#FFFFFF;" d="M377.19,220.683c-0.341-0.42-0.843-0.684-1.387-0.715l-3.911-0.242
					c-1.013-0.062-1.889,0.647-2.038,1.65l-0.367,2.466c-0.08,0.536,0.07,1.086,0.412,1.507c0.306,0.377,0.745,0.626,1.222,0.697
					c0.056,0.008,0.112,0.014,0.169,0.017l3.912,0.234c1.01,0.061,1.885-0.648,2.034-1.65l0.366-2.458
					C377.681,221.653,377.531,221.105,377.19,220.683z M375.261,225.3l-3.912-0.234c-0.268-0.014-0.506-0.139-0.674-0.346
					c-0.168-0.207-0.239-0.466-0.199-0.73l0.367-2.466c0.072-0.486,0.497-0.829,0.987-0.8l3.911,0.242
					c0.028,0.002,0.056,0.004,0.083,0.008c0.232,0.035,0.439,0.153,0.589,0.339c0.168,0.207,0.238,0.466,0.199,0.73l-0.056,0.374
					c-0.049-0.016-0.095-0.038-0.149-0.041l-1.094-0.078c-0.364-0.026-0.683,0.251-0.709,0.615
					c-0.026,0.364,0.251,0.683,0.615,0.709l1.094,0.078c0.019,0.001,0.035-0.007,0.053-0.007l-0.12,0.809
					C376.174,224.985,375.75,225.329,375.261,225.3z"/>
			</g>
		</g>
		<g>
			<path style="fill:#407BFF;" d="M365.362,159.305l8.384,6.533l2.876-4.53l4.132,3.132c0,0,1.38,4.663-1.648,7.52l-4.694-3.868
				l-4.28,3.868c0,0-7.919-6.615-9.285-8.615C359.48,161.345,365.362,159.305,365.362,159.305z"/>
			<path style="opacity:0.4;fill:#FFFFFF;enable-background:new    ;" d="M365.362,159.305l8.384,6.533l2.876-4.53l4.132,3.132
				c0,0,1.38,4.663-1.648,7.52l-4.694-3.868l-4.28,3.868c0,0-7.919-6.615-9.285-8.615
				C359.48,161.345,365.362,159.305,365.362,159.305z"/>
		</g>
		<path style="fill:#263238;" d="M355.858,161.633c9.064,10.235,7.35,96.622,7.35,96.622l3.059,0.563c0,0,2.647-86.615-8.389-97.184
			H355.858z"/>
		<g>
			<path style="fill:#EBB376;" d="M383.737,181.872l8.913-5.633c0,0,1.616-9.908,2.183-10.945c0.567-1.037,8.649-0.166,9.529-0.183
				c0.88-0.017,0.138,9.925-0.77,10.918c-0.908,0.993-4.268,1.644-4.268,1.644l-9.741,9.078L383.737,181.872z"/>
			<path style="fill:#407BFF;" d="M349.437,163.077c5.143-2.791,18.836,19.983,20.655,21.565c1.818,1.582,18.251-6.617,18.251-6.617
				l4.301,6.485c0,0-14.926,10.549-23.131,12.132c-8.205,1.582-19.414-14.586-20.929-18.617
				C344.635,167.52,349.437,163.077,349.437,163.077z"/>
			<path style="opacity:0.4;fill:#FFFFFF;enable-background:new    ;" d="M349.437,163.077c5.143-2.791,18.836,19.983,20.655,21.565
				c1.818,1.582,18.251-6.617,18.251-6.617l4.301,6.485c0,0-14.926,10.549-23.131,12.132c-8.205,1.582-19.414-14.586-20.929-18.617
				C344.635,167.52,349.437,163.077,349.437,163.077z"/>
		</g>
		<path style="fill:#263238;" d="M366.343,255.857l-35.182-4.933c0,0-0.391,38.363,1.223,40.481s33.399,8.855,35.932,6.675
			C370.849,295.9,366.343,255.857,366.343,255.857z"/>
	</g>
</g>
<g id="Character_1">
	<g>
		<path style="fill:#263238;" d="M128.422,163.746c0,0-7.649-4.253-13.887-1.088c-6.238,3.165-5.941,26.703-7.326,28.879
			c-1.385,2.176-4.945,4.055-4.945,4.055s9.939,3.956,21.041,3.956s19.014-2.07,19.014-2.07S148.251,159.889,128.422,163.746z"/>
		<polygon style="fill:#E4897B;" points="97.494,400.493 103.275,397.536 101.175,388.901 99.235,380.983 91.949,383.364 
			94.882,392.435 		"/>
		<g>
			<path style="fill:#263238;" d="M104.88,396.18c-0.34-0.644-8.097,3.858-8.097,3.858s-2.432,7.469-6.658,10.98
				c-4.227,3.512-0.12,5.052,5.231,2.386c5.351-2.666,9.435-4.7,13.238-6.594C112.396,404.915,108.406,402.86,104.88,396.18z"/>
			<g>
				<path style="fill:#407BFF;" d="M92.787,404.348c-0.218-0.05-0.504-0.222-0.62-0.758c-0.056-0.259-0.003-0.513,0.158-0.756
					c0.305-0.455,0.989-0.819,1.699-1.091c-0.825-0.023-1.606-0.161-1.84-0.571c-0.152-0.266-0.088-0.582,0.191-0.936
					c0.264-0.332,0.606-0.517,1.023-0.544c1.309-0.089,2.911,1.44,2.985,1.511c0.025,0.024,0.045,0.055,0.058,0.089l0,0
					c0.001,0.001,0.001,0.001,0.001,0.001c0.007,0.02,0.012,0.04,0.013,0.06c0,0,0,0,0,0.001l0,0c0.002,0.03-0.001,0.06-0.01,0.088
					l0,0l0,0c-0.008,0.027-0.021,0.053-0.04,0.076c-0.269,0.345-1.277,1.595-2.257,2.32
					C93.653,404.204,93.166,404.435,92.787,404.348z M92.718,403.097c-0.089,0.134-0.119,0.262-0.09,0.394
					c0.076,0.354,0.217,0.386,0.263,0.397c0.533,0.123,1.78-1.049,2.712-2.138C94.606,401.997,93.129,402.478,92.718,403.097z
					 M92.746,400.529c-0.084,0.106-0.215,0.3-0.153,0.41c0.2,0.35,1.657,0.402,3.069,0.262c-0.578-0.467-1.519-1.086-2.233-1.037
					c-0.187,0.013-0.349,0.069-0.488,0.173C92.87,400.388,92.806,400.453,92.746,400.529z"/>
			</g>
		</g>
		<polygon style="opacity:0.2;enable-background:new    ;" points="94.949,392.616 101.235,389.061 99.266,381.064 91.964,383.404 
					"/>
		<polygon style="fill:#E4897B;" points="107.689,407.715 114.297,407.715 116.19,399.22 117.912,391.426 110.18,390.247 
			108.857,399.495 		"/>
		<g>
			<path style="fill:#263238;" d="M116.485,407.452c-0.017-0.729-8.968-0.157-8.968-0.157s-5.507,5.601-10.856,6.86
				c-5.349,1.259-2.36,4.468,3.619,4.468c5.979,0,10.541,0,14.789,0C119.317,418.623,116.662,415.004,116.485,407.452z"/>
			<g>
				<path style="fill:#407BFF;" d="M102.019,409.371c-0.173-0.142-0.352-0.424-0.217-0.954c0.065-0.257,0.226-0.461,0.478-0.606
					c0.475-0.273,1.25-0.294,2.007-0.219c-0.728-0.388-1.366-0.861-1.392-1.331c-0.018-0.306,0.18-0.559,0.588-0.753
					c0.383-0.18,0.773-0.192,1.158-0.032c1.214,0.505,1.966,2.594,1.997,2.683c0.022,0.061,0.017,0.126-0.009,0.181
					c-0.009,0.017-0.02,0.034-0.032,0.05h-0.001l0,0c-0.021,0.026-0.048,0.047-0.079,0.061c-0.471,0.224-2.459,1.134-3.71,1.134
					C102.481,409.586,102.205,409.524,102.019,409.371z M102.515,408.22c-0.139,0.08-0.223,0.182-0.256,0.313
					c-0.089,0.351,0.022,0.443,0.059,0.473c0.422,0.347,2.062-0.147,3.381-0.705C104.695,408.078,103.16,407.85,102.515,408.22z
					 M103.685,405.935c-0.123,0.057-0.326,0.174-0.319,0.299c0.023,0.403,1.304,1.099,2.63,1.603
					c-0.31-0.677-0.875-1.65-1.536-1.924c-0.122-0.051-0.242-0.076-0.363-0.076C103.961,405.836,103.824,405.87,103.685,405.935z"/>
			</g>
		</g>
		<polygon style="opacity:0.2;enable-background:new    ;" points="108.839,399.684 116.174,399.388 117.904,391.509 
			110.176,390.289 		"/>
		<g>
			<path style="fill:#407BFF;" d="M139.922,252.149l-16.235-2.6l-14.705-2.999l-3.958,23.96c0,0-20.709,30.005-25.729,50.632
				c-5.02,20.627,13.802,68.525,13.802,68.525l8.657-3.827c0,0-6.006-46.049-5.864-51.587c0.093-3.6,11.904-20.2,20.164-31.383
				c0.232,2.803-2.442,30.816-2.442,30.816l-5.835,61.404h10.864C156.124,278.738,139.922,252.149,139.922,252.149z"/>
			<path style="opacity:0.6;fill:#FFFFFF;enable-background:new    ;" d="M118.64,395.088h-10.86l5.83-61.4
				c0,0,2.66-28.2,2.44-30.82c-1.63,2.21-3.4,4.62-5.19,7.11c-7.27,10.11-14.9,21.38-14.97,24.27c-0.14,5.54,5.86,51.59,5.86,51.59
				l-8.65,3.83c0,0-18.83-47.9-13.81-68.53c5.02-20.62,25.73-50.63,25.73-50.63l3.96-23.96l14.71,3l16.23,2.6
				C139.92,252.148,156.12,278.738,118.64,395.088z"/>
		</g>
		<polygon style="fill:#407BFF;" points="102.204,381.966 89.431,386.364 92.276,390.74 102.774,386.994 		"/>
		<polygon style="fill:#407BFF;" points="120.2,393.614 106.545,391.745 107.218,396.847 118.499,398.268 		"/>
		<path style="opacity:0.2;enable-background:new    ;" d="M116.05,302.868c-1.63,2.21-3.4,4.62-5.19,7.11
			c2.86-14.82,6.23-29.25,6.23-29.25C117.85,292.418,116.05,302.868,116.05,302.868z"/>
		<g>
			<path style="fill:#263238;" d="M109.903,203.06c-2.99,0.136-15.524,16.967-15.524,16.967l-4.654-6.051
				c0,0-7.176,13.942-3.627,20.578c3.549,6.636,22.257-11.504,22.257-11.504L109.903,203.06z"/>
		</g>
		<path style="opacity:0.2;enable-background:new    ;" d="M108.67,216.485l-0.315,6.562c0,0-3.076,2.981-6.964,6.081
			c-0.371-7.879,6.964-19.355,6.964-19.355L108.67,216.485z"/>
		<path style="opacity:0.2;enable-background:new    ;" d="M94.379,220.026l0.669,1.282l-1.951,7.591c0,0,5.381-4.896,1.951-9.694
			L94.379,220.026z"/>
		<g>
			<path style="fill:#263238;" d="M148.16,206.628c-0.68,1.73-1.3,3.39-1.86,4.94c-0.62,1.66-1.19,3.22-1.7,4.7
				c-1.23,3.48-2.19,6.49-2.96,9.16c-2.36,8.25-2.76,24.11-2.76,24.11l-29.61-2.05c-1.2-18.84-1.46-33.36-0.91-38.54
				c0.6-5.51,1.54-5.72,1.54-5.72s0.8-0.07,2.08-0.16c2.43-0.17,6.6-0.42,10.4-0.39c4.5,0.14,8.97,0.57,13.4,1.27
				c3.01,0.45,5.98,1.04,8.92,1.76c0.01,0,0.01,0,0.01,0C145.87,205.998,147.02,206.298,148.16,206.628z"/>
			<path style="opacity:0.2;enable-background:new    ;" d="M120.218,226.559c0,0,8.161,16.666,18.691,22.066
				c0.13-3.476,0.713-16.127,2.73-23.194c0.546-1.908,1.194-3.99,1.971-6.288l-3.211-3.459c0,0-2.228,3.854-2.911,8.906
				l-10.465-6.568L120.218,226.559z"/>
		</g>
		<circle style="opacity:0.6;fill:#FFFFFF;enable-background:new    ;" cx="119.075" cy="251.039" r="1.498"/>
		<polygon style="fill:#EEC1BB;" points="90.238,215.36 93.996,208.985 97.527,212.323 94.379,220.026 		"/>
		<polygon style="fill:#407BFF;" points="88.727,214.637 89.975,213.388 95.891,220.026 95.048,222.655 		"/>
		<polygon style="fill:#EEC1BB;" points="120.744,212.842 117.319,214.248 128.156,226.576 130.334,222.127 		"/>
		<g>
			<path style="fill:#263238;" d="M147.727,206.542c5.107,2.559,7.379,31.404-1.49,36.385c-8.869,4.981-22.122-17.526-22.122-17.526
				l5.148-5.463c0,0,10.797,9.039,12.101,8.209c1.303-0.83-0.179-9.664-0.179-9.664s-1.518-2.673,1.677-6.875
				C146.056,207.406,147.727,206.542,147.727,206.542z"/>
		</g>
		<polygon style="fill:#407BFF;" points="124.015,227.404 122.473,226.478 128.257,217.999 130.381,219.183 		"/>
		<polygon style="fill:#407BFF;" points="138.502,249.54 139.75,252.621 108.229,251.039 108.892,247.253 		"/>
		<path style="fill:#FFFFFF;" d="M121.862,248.394l-0.368,3.462c-0.04,0.38-0.376,0.658-0.756,0.628l-4.615-0.367
			c-0.392-0.031-0.683-0.377-0.645-0.769l0.325-3.412c0.036-0.38,0.368-0.662,0.749-0.636l4.658,0.317
			C121.607,247.644,121.904,247.997,121.862,248.394z"/>
		<path style="fill:#EEC1BB;" d="M123.374,208.955c7.468-1.345,9.564-4.671,9.564-4.671c-4.999-4.257-1.433-12.257-1.433-12.257
			l-8.963,2.15c0.314,1.483,0.479,2.732,0.547,3.791c0.348,5.488-2.133,5.669-2.133,5.669
			C119.52,206.693,123.374,208.955,123.374,208.955z"/>
		<path style="opacity:0.2;enable-background:new    ;" d="M122.542,194.177c0.314,1.483,0.479,2.732,0.547,3.791
			c4.311-1.233,8.415-5.941,8.415-5.941L122.542,194.177z"/>
		<g>
			<path style="fill:#EEC1BB;" d="M123.205,168.525c-7.856,0.707-10.006,5.14-9.854,13.288c0.191,10.182,3.081,17.168,12.709,14.124
				C139.137,191.802,136.252,167.351,123.205,168.525z"/>
			<path style="fill:#D4827D;" d="M118.391,180.917c0,0-0.904,2.15-1.993,3.464c0,0,0.769,1.008,2.151,0.702L118.391,180.917z"/>
			<g>
				<path style="fill:#263238;" d="M123.141,179.842c0.043,0.647,0.427,1.148,0.858,1.119s0.746-0.576,0.703-1.223
					c-0.043-0.647-0.427-1.148-0.858-1.119C123.413,178.648,123.099,179.195,123.141,179.842z"/>
				<path style="fill:#263238;" d="M124.026,178.638l-1.443-0.458C122.583,178.18,123.362,179.317,124.026,178.638z"/>
			</g>
			<g>
				<path style="fill:#263238;" d="M115.093,180.241c0.043,0.647,0.427,1.148,0.858,1.119c0.431-0.029,0.746-0.576,0.703-1.223
					c-0.043-0.647-0.427-1.148-0.858-1.119C115.365,179.047,115.05,179.594,115.093,180.241z"/>
				<path style="fill:#263238;" d="M115.978,179.038l-1.443-0.458C114.535,178.579,115.314,179.716,115.978,179.038z"/>
			</g>
			
				<path style="fill:none;stroke:#263238;stroke-width:0.7247;stroke-linecap:round;stroke-linejoin:round;stroke-miterlimit:10;" d="
				M122.732,174.41c0,0,2.182-0.486,3.514,0.881"/>
			
				<path style="fill:none;stroke:#263238;stroke-width:0.7247;stroke-linecap:round;stroke-linejoin:round;stroke-miterlimit:10;" d="
				M116.992,174.591c0,0-1.434-0.389-3.073,0.927"/>
			<path style="fill:#263238;" d="M132.982,180.993c0,0-4.254-6.124-4.145-11.157c0,0-16.14-4.96-15.487,10.911
				c0,0-2.783-13.894,10.694-15.422c13.455-1.525,15.196,18.235,8.751,24.749C132.794,190.075,135.618,184.826,132.982,180.993z"/>
			<path style="fill:#EEC1BB;" d="M131.848,182.767c-0.061-1.27,1.051-3.528,3.427-3.483c2.458,0.047,4.068,4.94-1.879,6.686
				C132.542,186.221,131.976,185.416,131.848,182.767z"/>
			
				<path style="fill:none;stroke:#263238;stroke-width:0.708;stroke-linecap:round;stroke-linejoin:round;stroke-miterlimit:10;" d="
				M119.088,188.39c0,0,3.3,0.268,4.217-2.777"/>
		</g>
		<path style="fill:#EEC1BB;" d="M144.7,205.708c-0.34,0.28-7.37,5.88-21.71,4.07c-11.37-1.44-13.02-4.56-11.01-6.71
			c2.43-0.17,6.6-0.42,10.4-0.39c4.5,0.14,8.97,0.57,13.4,1.27C138.79,204.398,141.76,204.988,144.7,205.708z"/>
		<g>
			<path style="fill:#407BFF;" d="M95.772,203.217l1.821,8.133c0.214,0.957,1.194,1.725,2.193,1.725h16.289
				c0.999,0,1.634-0.768,1.42-1.725l-1.821-8.133c-0.213-0.95-1.193-1.718-2.191-1.718H97.194
				C96.195,201.499,95.559,202.267,95.772,203.217z"/>
			<path style="opacity:0.2;enable-background:new    ;" d="M95.772,203.217l1.821,8.133c0.214,0.957,1.194,1.725,2.193,1.725
				h14.764c0.998,0,1.634-0.768,1.42-1.725l-1.821-8.133c-0.213-0.95-1.193-1.718-2.191-1.718H97.194
				C96.195,201.499,95.559,202.267,95.772,203.217z"/>
		</g>
		<path style="fill:#EEC1BB;" d="M110.565,207.43c0.926-0.678,5.953-2.748,6.772-2.02c0.818,0.729,3.03,6.901,3.951,7.703
			c0.112,0.098-2.785,3.417-2.785,3.417s-2.016-0.303-2.777-0.694C114.965,215.445,109.639,208.108,110.565,207.43z"/>
		<path style="fill:#EEC1BB;" d="M98.908,209.56c-0.124-0.294-2.347-5.753-2.992-5.639c-0.645,0.114-3.144,2.727-2.917,3.523
			c0.227,0.795,2.489,6.581,3.409,6.548c0.92-0.034,2.93,0,2.93,0S99.638,211.287,98.908,209.56z"/>
		<path style="fill:none;stroke:#263238;stroke-width:0.708;stroke-linecap:round;stroke-linejoin:round;stroke-miterlimit:10;" d="
			M128.755,169.514c0,0-2.834,3.939,2.296,10.047"/>
	</g>
</g>
<g id="Character_2">
	<g id="_x3C_Group_x3E__90_">
		<g>
			<path style="fill:#B97964;" d="M276.877,330.041h6.258l-2.7-7.996c0,0,1.725-1.403,2.354-2.377
				c0.63-0.974,0.939-7.894,0.775-8.727c-0.164-0.834-4.896-0.749-4.896-0.749s-4.355,3.865-5.205,7.457
				c-0.85,3.592,2.05,6.424,2.05,6.424L276.877,330.041z"/>
			<path style="opacity:0.2;enable-background:new    ;" d="M276.877,330.041h6.258l-2.7-7.996c0,0,1.725-1.403,2.354-2.377
				c0.63-0.974,0.939-7.894,0.775-8.727c-0.164-0.834-4.896-0.749-4.896-0.749s-4.355,3.865-5.205,7.457
				c-0.85,3.592,2.05,6.424,2.05,6.424L276.877,330.041z"/>
		</g>
		<g>
			<path style="fill:#407BFF;" d="M262.991,318.959c4.494,3.925,11.018,18.38,12.773,15.573c1.755-2.807,0.139-4.246,0.438-5.192
				c0.298-0.946,0.298-0.946,0.298-0.946s3.806,1.164,5.605-1.401c0,0,1.681,0.864,1.81,2.066c0.129,1.202,2.565,7.439,0.232,13.332
				c-1.611,4.07-6.558,8.14-24.518-0.702C245.912,334.936,262.991,318.959,262.991,318.959z"/>
			<path style="opacity:0.4;enable-background:new    ;" d="M262.991,318.959c4.494,3.925,11.018,18.38,12.773,15.573
				c1.755-2.807,0.139-4.246,0.438-5.192c0.298-0.946,0.298-0.946,0.298-0.946s3.806,1.164,5.605-1.401c0,0,1.681,0.864,1.81,2.066
				c0.129,1.202,2.565,7.439,0.232,13.332c-1.611,4.07-6.558,8.14-24.518-0.702C245.912,334.936,262.991,318.959,262.991,318.959z"
				/>
		</g>
		<g>
			<path style="fill:#263238;enable-background:new    ;" d="M248.287,421.542c-49.243-1.517-34.229-57.68-34.229-57.68
				l50.685,1.752c0,0,7.527,16.241,15.064,23.716C287.344,396.805,248.287,421.542,248.287,421.542z"/>
			<path style="opacity:0.2;enable-background:new    ;" d="M248.287,421.542c-49.243-1.517-34.229-57.68-34.229-57.68l50.685,1.752
				c0,0,7.527,16.241,15.064,23.716C287.344,396.805,248.287,421.542,248.287,421.542z"/>
		</g>
		<g>
			<path style="fill:#263238;" d="M266.387,381.043c0,0,59.879-10.401,65.142,10.776c5.263,21.177-49.256,32.159-78.624,30.216
				c-29.368-1.943-39.245-23.666-28.654-42.304L266.387,381.043z"/>
			<path style="opacity:0.2;enable-background:new    ;" d="M266.387,381.043c0,0,59.879-10.401,65.142,10.776
				c5.263,21.177-49.256,32.159-78.624,30.216c-29.368-1.943-39.245-23.666-28.654-42.304L266.387,381.043z"/>
		</g>
		<path style="fill:#407BFF;" d="M320.149,419.865c-0.071,0.035-0.156,0.022-0.214-0.033c-0.053-0.047-0.067-0.124-0.033-0.186
			c0.128-0.316,1.38-3.033,2.39-3.23c0.216-0.03,0.432,0.057,0.567,0.23c0.254,0.257,0.351,0.631,0.253,0.979
			c-0.211,0.51-0.579,0.941-1.05,1.23C321.46,419.256,320.819,419.594,320.149,419.865z M320.455,419.351
			c0.952-0.309,1.763-0.947,2.287-1.8c0.075-0.24,0.004-0.501-0.183-0.669c-0.048-0.074-0.137-0.11-0.223-0.09
			c-0.086,0.02-0.167,0.057-0.239,0.109C321.405,417.611,320.849,418.441,320.455,419.351z"/>
		<path style="fill:#407BFF;" d="M320.093,419.897c-0.068,0.018-0.14-0.011-0.177-0.072c-0.083-0.088-1.263-1.929-0.925-3.058
			c0.083-0.283,0.277-0.521,0.537-0.659c0.232-0.182,0.559-0.18,0.788,0.005c0.657,0.569,0.341,2.843-0.093,3.674l-0.034,0.084
			C320.161,419.889,320.127,419.897,320.093,419.897z M319.661,416.476c-0.133,0.094-0.23,0.23-0.275,0.386
			c-0.214,0.714,0.355,1.875,0.669,2.435c0.321-0.952,0.41-2.56,0.024-2.89c-0.043-0.028-0.121-0.103-0.345,0.023L319.661,416.476
			L319.661,416.476z"/>
		<path style="fill:#407BFF;" d="M259.737,424.246c0.025-0.075,0.094-0.127,0.173-0.13c0.071-0.006,0.136,0.039,0.156,0.107
			c0.136,0.313,1.201,3.108,0.635,3.967c-0.13,0.176-0.344,0.269-0.561,0.244c-0.362,0.002-0.696-0.191-0.876-0.504
			c-0.217-0.508-0.267-1.072-0.144-1.611C259.255,425.61,259.461,424.915,259.737,424.246z M259.89,424.825
			c-0.445,0.897-0.557,1.922-0.314,2.893c0.119,0.222,0.356,0.353,0.606,0.337c0.086,0.017,0.174-0.021,0.221-0.096
			c0.046-0.076,0.076-0.159,0.089-0.247C260.468,426.722,260.264,425.743,259.89,424.825z"/>
		<polygon style="fill:#B97964;" points="275.826,405.988 264.759,412.51 259.444,415.641 262.111,421.605 267.41,419.363 
			280.354,413.885 		"/>
		<path style="fill:#263238;" d="M263.723,421.6l-2.42-7.175c-0.135-0.4-0.574-0.61-0.97-0.463l-3.518,1.305
			c0,0-4.858,1.418-5.597,2.876c-2.158,4.26,2.788,20.269,4.813,20.476c0.741,0.076,1.297-1.029,1.474-1.751
			c0.562-2.293,1.205-8.134,1.698-10.041c0.575-2.229,3.039-3.742,4.165-4.329C263.694,422.329,263.841,421.948,263.723,421.6z"/>
		<path style="fill:#407BFF;" d="M259.754,424.184c0.035-0.061,0.106-0.092,0.175-0.076c0.121,0.002,2.262,0.447,2.832,1.479
			c0.144,0.257,0.178,0.562,0.095,0.845c-0.032,0.293-0.262,0.525-0.555,0.559c-0.866,0.071-2.27-1.746-2.56-2.637l-0.036-0.083
			C259.712,424.238,259.729,424.208,259.754,424.184z M262.5,426.269c0.026-0.161-0.004-0.325-0.083-0.467
			c-0.361-0.652-1.588-1.058-2.208-1.226c0.456,0.895,1.543,2.084,2.048,2.039c0.05-0.011,0.158-0.014,0.225-0.262L262.5,426.269
			L262.5,426.269z"/>
		<polygon style="opacity:0.2;enable-background:new    ;" points="275.826,405.988 264.759,412.51 267.41,419.363 280.354,413.885 
					"/>
		<g>
			<polygon style="fill:#407BFF;" points="269.721,420.025 273.187,419.613 268.634,408.295 265.17,411.187 			"/>
			<polygon style="opacity:0.6;fill:#FFFFFF;enable-background:new    ;" points="269.721,420.025 273.187,419.613 268.634,408.295 
				265.17,411.187 			"/>
		</g>
		<polygon style="fill:#B97964;" points="295.847,421.147 308.25,424.49 314.206,426.096 316.601,420.017 311.291,417.801 
			298.32,412.385 		"/>
		<path style="fill:#263238;" d="M315.469,418.869l-3.433,6.749c-0.191,0.376-0.034,0.837,0.348,1.017l3.394,1.6
			c0,0,4.412,2.478,5.971,1.986c4.554-1.439,12.53-16.174,11.261-17.765c-0.465-0.582-1.642-0.206-2.282,0.172
			c-2.031,1.203-6.655,4.831-8.361,5.813c-1.995,1.149-4.799,0.447-6.007,0.053C316.01,418.38,315.635,418.542,315.469,418.869z"/>
		<polygon style="opacity:0.2;enable-background:new    ;" points="295.847,421.147 308.25,424.49 311.291,417.801 298.32,412.385 
					"/>
		<path style="fill:#263238;" d="M309.25,416.275c0,0-49.319-36.192-67.144-37.152c-17.825-0.96-21.151,16.543-14.814,27.068
			c6.337,10.526,19.613,14.269,19.613,14.269s-7.896-13.931-6.198-17.456c1.698-3.525,5.533,9.291,5.533,9.291
			s32.055,7.518,60.111,12.76L309.25,416.275z"/>
		<g>
			<polygon style="fill:#407BFF;" points="310.159,415.564 307.446,413.316 302.552,424.427 307.042,424.878 			"/>
			<polygon style="opacity:0.6;fill:#FFFFFF;enable-background:new    ;" points="310.159,415.564 307.446,413.316 302.552,424.427 
				307.042,424.878 			"/>
		</g>
		<path style="fill:#407BFF;" d="M267.078,368.147c0,0-12.536,6.268-53.86-1.032c0,0,0.66-48.156,19.954-54.956
			c14.835-5.225,29.82,6.8,29.82,6.8l0.032,4.629l0.107,15.431c1.043,1.777,1.884,3.576,2.554,5.364
			C270.27,356.568,267.078,368.147,267.078,368.147z"/>
		<path style="opacity:0.2;enable-background:new    ;" d="M267.078,368.147c0,0-12.536,6.268-53.86-1.032
			c0,0,0.66-48.156,19.954-54.956c14.835-5.225,29.82,6.8,29.82,6.8l0.032,4.629l0.107,15.431c1.043,1.777,1.884,3.576,2.554,5.364
			C270.27,356.568,267.078,368.147,267.078,368.147z"/>
		<g>
			<path style="fill:#407BFF;" d="M246.654,322.75c0,0-12.822-8.82-19.713-6.448c0,0-5.347-1.495-1.137-8.684
				c4.21-7.188,24.855-5.645,30.248,1.091C261.446,315.446,261.329,322.897,246.654,322.75z"/>
			<path style="opacity:0.4;enable-background:new    ;" d="M246.654,322.75c0,0-12.822-8.82-19.713-6.448
				c0,0-5.347-1.495-1.137-8.684c4.21-7.188,24.855-5.645,30.248,1.091C261.446,315.446,261.329,322.897,246.654,322.75z"/>
		</g>
		<path style="fill:#B97964;" d="M253.849,316.209c-7.329,8.008-20.678-4.051-20.678-4.051c7.862-1.747,4.68-15.804,4.68-15.804
			l12.645,5.997c-0.7,3.576-0.825,6.226-0.616,8.192C250.464,316.287,253.849,316.209,253.849,316.209z"/>
		<path style="opacity:0.2;enable-background:new    ;" d="M249.88,310.544c-9.243-2.252-10.98-10.459-10.98-10.459l10.292,1.649
			l1.303,0.618C249.795,305.928,249.671,308.578,249.88,310.544z"/>
		<g>
			<path style="fill:#263238;" d="M254.469,282.874c-3.436,1.553-2.649,5.331,3.348,12.069c3.458-3.175,5.16-10.206,3.225-12.384
				C259.105,280.381,257.462,281.533,254.469,282.874z"/>
			<path style="fill:#B97964;" d="M240.254,286.31c0,0-4.695,11.36,2.188,17.577c4.995,4.512,11.897,5.462,16.996-0.123
				c3.995-4.376,1.616-9.933,1.616-9.933c0.814-5.722-0.11-12.019-4.76-15.027c-4.811-3.148-11.264-1.8-14.412,3.012
				C240.999,283.167,240.441,284.706,240.254,286.31z"/>
			<path style="fill:#263238;" d="M251.037,290.495c-0.116,0.609,0.115,1.165,0.513,1.239c0.398,0.074,0.808-0.353,0.924-0.962
				c0.116-0.609-0.107-1.162-0.501-1.243C251.578,289.447,251.193,289.903,251.037,290.495z"/>
			<path style="fill:#263238;" d="M257.959,291.826c-0.116,0.609,0.115,1.165,0.513,1.239c0.398,0.074,0.816-0.349,0.936-0.966
				c0.119-0.617-0.115-1.165-0.513-1.239C258.496,290.786,258.074,291.217,257.959,291.826z"/>
			<path style="fill:#A24E3F;" d="M255.645,291.682c0.371,2.001,1.016,3.941,1.917,5.766c-1.292,0.796-3.018-0.014-3.018-0.014
				L255.645,291.682z"/>
			<path style="fill:#263238;" d="M249.562,287.951c-0.081-0.005-0.158-0.038-0.218-0.093c-0.135-0.149-0.127-0.378,0.019-0.517
				c0.851-0.81,2.044-1.154,3.196-0.921c0.189,0.042,0.308,0.23,0.266,0.419c-0.002,0.008-0.004,0.017-0.007,0.025
				c-0.057,0.19-0.251,0.303-0.444,0.259l0,0c-0.91-0.169-1.847,0.111-2.514,0.753C249.776,287.943,249.668,287.97,249.562,287.951z
				"/>
			<path style="fill:#263238;" d="M261.557,290.094c-0.138-0.028-0.249-0.13-0.288-0.265c-0.215-0.902-0.849-1.647-1.705-2.003
				c-0.191-0.065-0.294-0.27-0.233-0.462c0.063-0.188,0.263-0.292,0.453-0.236c1.091,0.435,1.905,1.371,2.184,2.512
				c0.053,0.191-0.059,0.39-0.25,0.443c-0.002,0.001-0.004,0.001-0.005,0.001C261.662,290.098,261.609,290.101,261.557,290.094z"/>
			<path style="fill:#263238;" d="M244.501,280.247c3.269,1.867,2.12,5.557-4.491,11.683c-3.141-3.492-4.165-10.662-2.021-12.631
				C240.133,277.33,241.644,278.622,244.501,280.247z"/>
			<path style="fill:#B97964;" d="M235.546,291.615c0.175,1.914,1.101,3.68,2.576,4.911c1.967,1.609,3.966,0.094,4.275-2.293
				c0.276-2.153-0.419-5.587-2.801-6.266C237.215,287.288,235.343,289.268,235.546,291.615z"/>
			
				<path style="fill:none;stroke:#263238;stroke-width:0.5263;stroke-linecap:round;stroke-linejoin:round;stroke-miterlimit:10;" d="
				M250.296,296.386c0,0,0.152,2.825,3.552,4.265"/>
			<path style="fill:#263238;" d="M252.432,279.463c0,0-2.293,6.586-9.588,5.764c-7.294-0.822-7.683-3.252-7.683-3.252
				s2.64,0.095,3.31,0.195c0,0-3.562-5.284-0.9-8.101c2.662-2.816,10.436-4.882,15.482-2.249c0,0,5.645-1.104,9.956,2.638
				c6.545,5.682,2.67,9.067,2.67,9.067s1.152-2.098-1.339-4.815c0,0,1.647,7.661-3.016,8.818
				C261.323,287.529,262.114,280.41,252.432,279.463z"/>
		</g>
		<g>
			<path style="fill:#407BFF;" d="M253.052,271.821c-7.31,1.539-16.196,14.528-16.196,14.528s-3.457-6.614-2.771-8.045
				c2.771-5.784,9.248-10.459,11.788-11.151c1.158-0.316,9.157,1.103,13.441,5.202C259.314,272.354,255.846,271.233,253.052,271.821
				z"/>
			<path style="opacity:0.3;enable-background:new    ;" d="M253.052,271.821c-7.31,1.539-16.196,14.528-16.196,14.528
				s-3.457-6.614-2.771-8.045c2.771-5.784,9.248-10.459,11.788-11.151c1.158-0.316,9.157,1.103,13.441,5.202
				C259.314,272.354,255.846,271.233,253.052,271.821z"/>
			<path style="fill:#407BFF;" d="M244.697,277.104c2.731-2.357,7.246-8.11,7.737-12.109c0.491-4,10.964-2.895,14.069-0.789
				c3.105,2.105,2.687,8.483-1.025,12.899c0,0-2.396-3.689-7.922-3.794C252.03,273.204,244.697,277.104,244.697,277.104z"/>
			<path style="opacity:0.5;enable-background:new    ;" d="M244.697,277.104c2.731-2.357,7.246-8.11,7.737-12.109
				c0.491-4,10.964-2.895,14.069-0.789c3.105,2.105,2.687,8.483-1.025,12.899c0,0-2.396-3.689-7.922-3.794
				C252.03,273.204,244.697,277.104,244.697,277.104z"/>
		</g>
		<g>
			<path style="fill:#263238;" d="M270.639,316.238c-0.016,0.451,0.337,0.787,0.79,0.752l8.048-0.625
				c0.452-0.035,0.832-0.429,0.848-0.879l0.564-16.023c0.016-0.451-0.346-0.897-0.798-0.862l-8.048,0.625
				c-0.452,0.035-0.824,0.539-0.84,0.989L270.639,316.238z"/>
			<path style="opacity:0.5;fill:#FFFFFF;" d="M272.088,300.042l-0.576,16.178c-0.016,0.456,0.243,0.745,0.692,0.71l6.824-0.53
				c0.458-0.035,1.277-0.353,1.293-0.809l0.572-16.233c0.016-0.456-0.793-0.758-1.251-0.722l-6.824,0.53
				C272.369,299.201,272.104,299.586,272.088,300.042z"/>
		</g>
		<path style="opacity:0.2;enable-background:new    ;" d="M265.683,344.383c-2.331,4.012-6.47,9.237-11.834,9.237
			c-8.535,0-33.8-21.742-21.306-30.873c5.502-4.023,14.58,4.959,17.677,7.513c3.108,2.543,12.803-6.673,12.803-6.673l0.107,15.431
			C264.172,340.797,265.013,342.595,265.683,344.383z"/>
		<path style="fill:#B97964;" d="M262.458,328.41l3.061-7.133c0,0,0.995-9.578,1.479-10.603c0.485-1.025,8.273-0.642,9.114-0.707
			c0.841-0.065,0.686,9.496-0.128,10.498c-0.814,1.001-3.995,1.813-3.995,1.813l-3.902,10.21L262.458,328.41z"/>
		<path style="fill:#407BFF;" d="M230.717,316.933c5.663-2.287,15.565,15.32,20.272,16.108c4.708,0.788,12.85-7.85,13.156-8.562
			c0.305-0.712,5.999,2.52,6.494,4.018c0.495,1.497-6.442,11.929-11.955,15.297c-5.513,3.368-23.694-2.655-27.967-8.483
			C225.103,327.655,223.56,319.824,230.717,316.933z"/>
		<path style="opacity:0.2;enable-background:new    ;" d="M230.717,316.933c5.663-2.287,15.565,15.32,20.272,16.108
			c4.708,0.788,12.85-7.85,13.156-8.562c0.305-0.712,5.999,2.52,6.494,4.018c0.495,1.497-6.442,11.929-11.955,15.297
			c-5.513,3.368-23.694-2.655-27.967-8.483C225.103,327.655,223.56,319.824,230.717,316.933z"/>
	</g>
</g>
</svg>
